<?xml version="1.0" encoding="utf-8"?>
<!-- Generator: Adobe Illustrator 27.5.0, SVG Export Plug-In . SVG Version: 6.00 Build 0)  -->
<svg version="1.1" xmlns="http://www.w3.org/2000/svg" xmlns:xlink="http://www.w3.org/1999/xlink" x="0px" y="0px"
	 viewBox="0 0 500 500" style="enable-background:new 0 0 500 500;" xml:space="preserve">
<g id="Background_Simple">
	<g>
		<path style="fill:#92E3A9;" d="M465.74,377.39c27.811-59.692,29.683-139.224,10.484-202.987
			c-16.53-54.899-53.313-96.77-95.799-121.704c-49.295-28.93-108.051-37.54-160.95-19.282c-13.918,4.804-27.464,9.203-40.583,17.092
			c-53.783,32.341-43.405,112.037-62.275,139.76c-15.876,23.324-46.233,16.446-65.372,34.319
			c-51.643,48.229-51.779,170.137,7.813,208.245C122.277,473.259,396.855,525.236,465.74,377.39z"/>
		<path style="opacity:0.8;fill:#FFFFFF;" d="M465.74,377.39c27.811-59.692,29.683-139.224,10.484-202.987
			c-16.53-54.899-53.313-96.77-95.799-121.704c-49.295-28.93-108.051-37.54-160.95-19.282c-13.918,4.804-27.464,9.203-40.583,17.092
			c-53.783,32.341-43.405,112.037-62.275,139.76c-15.876,23.324-46.233,16.446-65.372,34.319
			c-51.643,48.229-51.779,170.137,7.813,208.245C122.277,473.259,396.855,525.236,465.74,377.39z"/>
	</g>
</g>
<g id="Floor">
	
		<line style="fill:none;stroke:#263238;stroke-linecap:round;stroke-linejoin:round;stroke-miterlimit:10;" x1="7.293" y1="445.816" x2="492.716" y2="445.816"/>
</g>
<g id="Diamonds">
	<g>
		
			<rect x="349.863" y="32.497" transform="matrix(0.7071 -0.7071 0.7071 0.7071 76.4059 264.3635)" style="fill:none;stroke:#263238;stroke-linecap:round;stroke-linejoin:round;stroke-miterlimit:10;" width="14.91" height="14.91"/>
		
			<rect x="447.562" y="112.352" transform="matrix(0.7071 -0.7071 0.7071 0.7071 48.5552 356.8368)" style="fill:none;stroke:#263238;stroke-linecap:round;stroke-linejoin:round;stroke-miterlimit:10;" width="14.91" height="14.91"/>
		
			<rect x="107.094" y="43.355" transform="matrix(0.7071 -0.7071 0.7071 0.7071 -2.3773 95.8804)" style="fill:none;stroke:#263238;stroke-linecap:round;stroke-linejoin:round;stroke-miterlimit:10;" width="14.91" height="14.91"/>
		
			<rect x="282.542" y="388.646" transform="matrix(0.7071 -0.7071 0.7071 0.7071 -195.1479 321.0742)" style="fill:none;stroke:#263238;stroke-linecap:round;stroke-linejoin:round;stroke-miterlimit:10;" width="14.91" height="14.91"/>
		
			<rect x="299.915" y="371.273" transform="matrix(0.7071 -0.7071 0.7071 0.7071 -177.7747 328.2704)" style="fill:none;stroke:#263238;stroke-linecap:round;stroke-linejoin:round;stroke-miterlimit:10;" width="14.91" height="14.91"/>
		
			<rect x="330.552" y="53.181" transform="matrix(0.7071 -0.7071 0.7071 0.7071 57.2496 254.0441)" style="fill:none;stroke:#263238;stroke-linecap:round;stroke-linejoin:round;stroke-miterlimit:10;" width="9.469" height="9.469"/>
		
			<rect x="44.06" y="335.741" transform="matrix(0.7071 -0.7071 0.7071 0.7071 -226.4618 134.2268)" style="fill:none;stroke:#263238;stroke-linecap:round;stroke-linejoin:round;stroke-miterlimit:10;" width="9.469" height="9.469"/>
		
			<rect x="406.559" y="396.616" transform="matrix(0.7071 -0.7071 0.7071 0.7071 -163.3321 408.3814)" style="fill:none;stroke:#263238;stroke-linecap:round;stroke-linejoin:round;stroke-miterlimit:10;" width="9.469" height="9.469"/>
	</g>
</g>
<g id="Calendar">
	<g>
		<path style="fill:none;stroke:#263238;stroke-miterlimit:10;" d="M457.468,320.708h-54.363c-2.209,0-4-1.791-4-4v-46.674
			c0-2.209,1.791-4,4-4h54.363c2.209,0,4.001,1.791,4.001,4v46.674C461.469,318.917,459.677,320.708,457.468,320.708z"/>
		<g>
			<rect x="402.668" y="282.709" style="fill:none;stroke:#263238;stroke-miterlimit:10;" width="5.399" height="5.399"/>
			<rect x="412.636" y="282.709" style="fill:none;stroke:#263238;stroke-miterlimit:10;" width="5.399" height="5.399"/>
			<rect x="422.603" y="282.709" style="fill:none;stroke:#263238;stroke-miterlimit:10;" width="5.399" height="5.399"/>
			<rect x="432.571" y="282.709" style="fill:none;stroke:#263238;stroke-miterlimit:10;" width="5.399" height="5.399"/>
			<rect x="442.538" y="282.709" style="fill:none;stroke:#263238;stroke-miterlimit:10;" width="5.399" height="5.399"/>
			<rect x="452.506" y="282.709" style="fill:none;stroke:#263238;stroke-miterlimit:10;" width="5.399" height="5.399"/>
		</g>
		<g>
			<rect x="402.668" y="293.982" style="fill:none;stroke:#263238;stroke-miterlimit:10;" width="5.399" height="5.399"/>
			<rect x="412.636" y="293.982" style="fill:none;stroke:#263238;stroke-miterlimit:10;" width="5.399" height="5.399"/>
			<rect x="422.603" y="293.982" style="fill:none;stroke:#263238;stroke-miterlimit:10;" width="5.399" height="5.399"/>
			<rect x="432.571" y="293.982" style="fill:none;stroke:#263238;stroke-miterlimit:10;" width="5.399" height="5.399"/>
			<rect x="442.538" y="293.982" style="fill:none;stroke:#263238;stroke-miterlimit:10;" width="5.399" height="5.399"/>
			<rect x="452.506" y="293.982" style="fill:none;stroke:#263238;stroke-miterlimit:10;" width="5.399" height="5.399"/>
		</g>
		<g>
			<rect x="402.668" y="305.255" style="fill:none;stroke:#263238;stroke-miterlimit:10;" width="5.399" height="5.399"/>
			<rect x="412.636" y="305.255" style="fill:none;stroke:#263238;stroke-miterlimit:10;" width="5.399" height="5.399"/>
			<rect x="422.603" y="305.255" style="fill:none;stroke:#263238;stroke-miterlimit:10;" width="5.399" height="5.399"/>
			<rect x="432.571" y="305.255" style="fill:none;stroke:#263238;stroke-miterlimit:10;" width="5.399" height="5.399"/>
			<rect x="442.538" y="305.255" style="fill:none;stroke:#263238;stroke-miterlimit:10;" width="5.399" height="5.399"/>
			<rect x="452.506" y="305.255" style="fill:none;stroke:#263238;stroke-miterlimit:10;" width="5.399" height="5.399"/>
		</g>
		<rect x="411.799" y="271.887" style="fill:none;stroke:#263238;stroke-miterlimit:10;" width="36.975" height="4.058"/>
	</g>
</g>
<g id="Clock">
	<g>
		
			<ellipse transform="matrix(0.7071 -0.7071 0.7071 0.7071 -182.8546 149.5443)" style="fill:none;stroke:#263238;stroke-miterlimit:10;" cx="89.089" cy="295.497" rx="40.184" ry="40.184"/>
		<circle style="fill:none;stroke:#263238;stroke-miterlimit:10;" cx="89.089" cy="295.497" r="34.967"/>
		<polyline style="fill:none;stroke:#263238;stroke-miterlimit:10;" points="78.446,305.09 89.089,295.497 69.222,277.416 		"/>
	</g>
</g>
<g id="Board_3">
	<g>
		<path style="fill:none;stroke:#263238;stroke-linecap:round;stroke-linejoin:round;stroke-miterlimit:10;" d="M474.311,288.952
			v140.684H335.724V76.926c0-3.31,2.683-5.993,5.993-5.993h126.6c3.31,0,5.993,2.683,5.993,5.993v202.703"/>
		<path style="fill:#263238;stroke:#263238;stroke-linecap:round;stroke-linejoin:round;stroke-miterlimit:10;" d="M474.311,92.446
			H335.724V76.926c0-3.31,2.683-5.993,5.993-5.993h126.6c3.31,0,5.993,2.683,5.993,5.993V92.446z"/>
	</g>
</g>
<g id="Board_2">
	<g>
		<path style="fill:none;stroke:#263238;stroke-linecap:round;stroke-linejoin:round;stroke-miterlimit:10;" d="M264.532,429.637
			h-79.152V76.926c0-3.31,2.683-5.993,5.993-5.993h126.599c3.31,0,5.993,2.683,5.993,5.993v352.71h-50.11"/>
		<path style="fill:#263238;stroke:#263238;stroke-linecap:round;stroke-linejoin:round;stroke-miterlimit:10;" d="M323.966,92.446
			H185.379V76.926c0-3.31,2.683-5.993,5.993-5.993h126.599c3.31,0,5.993,2.683,5.993,5.993V92.446z"/>
	</g>
</g>
<g id="Board_1">
	<g>
		<path style="fill:none;stroke:#263238;stroke-linecap:round;stroke-linejoin:round;stroke-miterlimit:10;" d="M35.034,333.705
			V76.926c0-3.31,2.683-5.993,5.993-5.993h126.6c3.31,0,5.993,2.683,5.993,5.993v352.71H35.034v-87.229"/>
		<path style="fill:#263238;stroke:#263238;stroke-linecap:round;stroke-linejoin:round;stroke-miterlimit:10;" d="M173.621,92.446
			H35.034V76.926c0-3.31,2.683-5.993,5.993-5.993h126.6c3.31,0,5.993,2.683,5.993,5.993V92.446z"/>
	</g>
</g>
<g id="Plants">
	<g>
		<path style="fill:#263238;" d="M72.232,397.086c-1.963,0.58-6.504-0.092-6.507-0.092c-0.047-0.007,1.352-2.858,1.46-3.028
			c1.261-1.965,4.852-5.02,7.379-4.352c1.821,0.482,2.619,2.464,1.982,4.156C75.896,395.496,73.904,396.591,72.232,397.086z"/>
		<path style="fill:#263238;" d="M29.84,395.185c-0.043,0.02-0.449-3.13-0.452-3.331c-0.032-2.334,1.277-6.864,3.754-7.7
			c1.784-0.602,3.543,0.611,3.946,2.372c0.411,1.799-0.647,3.811-1.769,5.146C34.001,393.24,29.843,395.184,29.84,395.185z"/>
		<path style="fill:#263238;" d="M20.122,386.76c1.37,0.768,4.605,1.101,5.409,1.173c0.4,0.549,0.822,1.141,1.274,1.805
			c0.785,1.174,1.661,2.507,2.515,4.02c0.228,0.402,0.458,0.845,0.688,1.27c-0.536-0.635-1.285-1.496-1.367-1.572
			c-1.508-1.391-5.24-3.192-7.241-2.062c-1.441,0.814-1.68,2.677-0.764,3.974c0.936,1.325,2.874,1.813,4.405,1.862
			c1.598,0.051,4.693-1.185,5.367-1.462c0.496,0.949,0.982,1.934,1.43,2.992c0.776,1.824,1.508,3.809,1.988,5.921
			c-0.066,0.029-0.054,0.023-0.121,0.052c-0.424-0.647-1.345-1.983-1.433-2.085c-1.346-1.548-4.858-3.749-6.971-2.845
			c-1.522,0.651-1.964,2.476-1.195,3.866c0.785,1.42,2.657,2.118,4.174,2.335c1.748,0.25,5.482-0.859,5.622-0.901
			c0.425,1.976,0.711,4.037,0.884,6.148c0.127,1.529,0.193,3.083,0.245,4.643c-0.285-0.462-1.493-2.218-1.595-2.335
			c-1.346-1.548-4.858-3.749-6.971-2.845c-1.522,0.651-1.964,2.476-1.196,3.866c0.785,1.42,2.657,2.118,4.174,2.335
			c1.707,0.244,5.289-0.802,5.59-0.891c0.023,0.708,0.05,1.415,0.067,2.126c0.058,2.318,0.106,4.643,0.225,6.936
			c0.04,0.794,0.11,1.575,0.176,2.358c-0.449-0.679-1.29-1.899-1.374-1.995c-1.347-1.548-4.858-3.749-6.971-2.845
			c-1.522,0.651-1.964,2.476-1.195,3.866c0.785,1.419,2.657,2.118,4.174,2.335c1.524,0.218,4.555-0.597,5.405-0.839
			c0.119,1.302,0.267,2.59,0.472,3.852c0.1,0.542,0.168,1.102,0.294,1.617c0.116,0.522,0.23,1.038,0.344,1.549
			c0.272,1.05,0.522,2.026,0.8,2.996c0.137,0.492,0.278,0.952,0.417,1.428c-0.352-0.756-0.929-1.944-0.994-2.047
			c-1.096-1.734-4.234-4.441-6.459-3.868c-1.603,0.413-2.316,2.15-1.768,3.64c0.561,1.522,2.306,2.496,3.772,2.94
			c1.617,0.49,5.196,0.028,5.634-0.031c0.347,1.162,0.696,2.292,1.042,3.341c0.281,0.858,0.555,1.661,0.823,2.434h1.511
			c-0.337-0.896-0.687-1.852-1.046-2.872c-0.333-0.942-0.671-1.946-1.007-2.981c0.403-0.161,3.516-1.431,4.781-2.616
			c1.292,0.85,2.767,1.574,3.027,1.7c-0.352,1.161-0.683,2.295-0.974,3.362c-0.333,1.212-0.626,2.348-0.889,3.408H46.8
			c0.219-0.964,0.457-1.975,0.73-3.062c0.241-0.97,0.514-1.993,0.804-3.042c0.441,0.091,3.971,0.798,5.616,0.422
			c1.494-0.341,3.302-1.191,3.968-2.671c0.651-1.449,0.061-3.231-1.51-3.755c-2.18-0.726-5.498,1.756-6.713,3.41
			c-0.078,0.106-0.856,1.461-1.238,2.161c0.178-0.633,0.352-1.263,0.548-1.919c0.274-0.946,0.596-1.937,0.901-2.899
			c0.177-0.493,0.355-0.991,0.536-1.494c0.171-0.512,0.397-0.978,0.595-1.476c0.307-0.723,0.66-1.453,1.01-2.183
			c0.947,0.338,3.742,1.28,5.222,1.173c1.529-0.111,3.445-0.678,4.326-2.039c0.863-1.333,0.55-3.185-0.923-3.94
			c-2.045-1.048-5.701,0.903-7.152,2.354c-0.047,0.047-0.322,0.385-0.644,0.79c0.364-0.702,0.724-1.404,1.117-2.103
			c1.112-1.983,2.308-3.969,3.497-5.964c0.248-0.416,0.489-0.835,0.735-1.251c0.795,0.288,3.814,1.337,5.365,1.224
			c1.528-0.111,3.445-0.678,4.326-2.039c0.864-1.333,0.55-3.185-0.923-3.94c-2.045-1.048-5.701,0.902-7.152,2.353
			c-0.052,0.052-0.379,0.457-0.741,0.913c0.631-1.093,1.246-2.19,1.822-3.298c1.01-1.936,1.901-3.898,2.613-5.867
			c0.279,0.105,3.794,1.405,5.518,1.28c1.529-0.111,3.445-0.677,4.326-2.039c0.863-1.333,0.55-3.185-0.924-3.94
			c-2.045-1.048-5.701,0.903-7.152,2.354c-0.103,0.103-1.276,1.576-1.677,2.117c0.008-0.024,0.02-0.047,0.028-0.07
			c0.728-2.073,1.168-4.143,1.489-6.126c0.323-1.978,0.459-3.868,0.54-5.609c0.085-1.743,0.055-3.342,0.017-4.757
			c-0.027-0.766-0.065-1.466-0.108-2.119c0.007,0.006,0.038,0.03,0.038,0.03c0.033,0.026,0.995-2.594,1.037-2.767
			c0.483-1.994,0.243-6.131-1.716-7.331c-1.412-0.864-3.156-0.167-3.844,1.264c-0.703,1.462-0.188,3.392,0.513,4.755
			c0.719,1.396,3.234,3.459,3.865,3.962c0.031,0.679,0.056,1.405,0.067,2.208c0.007,1.412,0.002,3.007-0.12,4.74
			c-0.031,0.462-0.084,0.957-0.126,1.439c-0.097-0.826-0.246-1.957-0.273-2.065c-0.491-1.992-2.61-5.553-4.902-5.715
			c-1.651-0.116-2.878,1.306-2.829,2.893c0.05,1.621,1.397,3.098,2.647,3.984c1.304,0.925,4.568,1.601,5.283,1.741
			c-0.11,1.064-0.248,2.155-0.458,3.284c-0.359,1.95-0.844,4.009-1.608,6.036c-0.071-0.013-0.058-0.01-0.129-0.023
			c0.003-0.773-0.027-2.397-0.045-2.531c-0.269-2.034-1.984-5.806-4.244-6.218c-1.629-0.297-3.004,0.982-3.13,2.565
			c-0.129,1.617,1.048,3.232,2.193,4.25c1.32,1.173,5.046,2.307,5.186,2.35c-0.736,1.883-1.634,3.76-2.654,5.615
			c-0.737,1.346-1.54,2.678-2.357,4.008c0.017-0.542-0.022-2.674-0.042-2.827c-0.269-2.034-1.984-5.806-4.245-6.219
			c-1.629-0.297-3.004,0.982-3.13,2.565c-0.128,1.617,1.048,3.232,2.193,4.25c1.289,1.145,4.854,2.249,5.155,2.34
			c-0.372,0.604-0.74,1.208-1.118,1.81c-1.23,1.966-2.473,3.931-3.639,5.908c-0.404,0.685-0.777,1.375-1.154,2.064
			c0-0.814-0.029-2.295-0.046-2.422c-0.268-2.034-1.984-5.807-4.244-6.219c-1.629-0.297-3.004,0.982-3.13,2.565
			c-0.129,1.617,1.048,3.232,2.193,4.25c1.151,1.023,4.128,2.015,4.971,2.283c-0.619,1.151-1.207,2.307-1.731,3.473
			c-0.215,0.508-0.468,1.012-0.647,1.511c-0.191,0.499-0.381,0.993-0.568,1.482c-0.352,1.026-0.683,1.978-0.986,2.94
			c-0.157,0.486-0.293,0.947-0.439,1.421c0.123-0.825,0.298-2.135,0.3-2.256c0.043-2.051-1.081-6.04-3.253-6.79
			c-1.565-0.54-3.118,0.515-3.483,2.061c-0.046,0.197-0.072,0.396-0.081,0.597c-1.073,1.484-1.715,3.659-1.782,5.021
			c-0.007,0.131,0.092,1.69,0.159,2.485c-0.201-0.627-0.403-1.248-0.601-1.903c-0.293-0.941-0.572-1.944-0.848-2.915
			c-0.125-0.509-0.25-1.023-0.377-1.542c-0.139-0.521-0.208-1.035-0.318-1.56c-0.143-0.772-0.252-1.576-0.362-2.378
			c0.976-0.241,3.827-0.996,5.002-1.902c1.214-0.936,2.499-2.466,2.484-4.087c-0.015-1.589-1.299-2.96-2.944-2.777
			c-2.284,0.254-4.257,3.898-4.667,5.908c-0.013,0.065-0.056,0.499-0.101,1.014c-0.084-0.786-0.171-1.571-0.229-2.37
			c-0.166-2.268-0.264-4.584-0.373-6.903c-0.023-0.483-0.052-0.966-0.077-1.449c0.822-0.198,3.919-0.989,5.15-1.939
			c1.214-0.936,2.499-2.466,2.484-4.088c-0.016-1.588-1.298-2.959-2.944-2.776c-2.284,0.254-4.257,3.898-4.667,5.908
			c-0.015,0.072-0.064,0.59-0.115,1.17c-0.077-1.259-0.169-2.514-0.299-3.756c-0.226-2.172-0.566-4.3-1.058-6.335
			c0.291-0.067,3.94-0.921,5.308-1.977c1.213-0.936,2.5-2.465,2.484-4.087c-0.015-1.588-1.299-2.959-2.944-2.777
			c-2.284,0.254-4.257,3.898-4.667,5.909c-0.029,0.142-0.194,2.019-0.231,2.69c-0.006-0.024-0.009-0.05-0.015-0.074
			c-0.536-2.132-1.312-4.1-2.138-5.931c-0.822-1.828-1.751-3.48-2.644-4.977c-0.891-1.5-1.798-2.818-2.61-3.977
			c-0.445-0.624-0.863-1.187-1.259-1.708c0.009,0.001,0.049,0.004,0.049,0.004c0.042,0.003-0.601-2.713-0.661-2.88
			c-0.698-1.93-3.18-5.248-5.476-5.167c-1.654,0.058-2.725,1.602-2.509,3.175C17.291,384.684,18.786,386.01,20.122,386.76z"/>
	</g>
</g>
<g id="Cards_3">
	<g>
		
			<rect x="345.929" y="112.769" style="fill:#92E3A9;stroke:#263238;stroke-linecap:round;stroke-linejoin:round;stroke-miterlimit:10;" width="16.381" height="26.666"/>
		
			<rect x="370.709" y="112.769" style="fill:#92E3A9;stroke:#263238;stroke-linecap:round;stroke-linejoin:round;stroke-miterlimit:10;" width="16.381" height="26.666"/>
		
			<rect x="345.929" y="151.773" style="fill:#263238;stroke:#263238;stroke-linecap:round;stroke-linejoin:round;stroke-miterlimit:10;" width="16.381" height="26.666"/>
		
			<rect x="370.709" y="151.773" style="fill:#263238;stroke:#263238;stroke-linecap:round;stroke-linejoin:round;stroke-miterlimit:10;" width="16.381" height="26.666"/>
		
			<rect x="396.094" y="151.773" style="fill:#FFFFFF;stroke:#263238;stroke-linecap:round;stroke-linejoin:round;stroke-miterlimit:10;" width="16.381" height="26.666"/>
	</g>
</g>
<g id="Cards_2">
	<g>
		
			<rect x="199.058" y="112.769" style="fill:#92E3A9;stroke:#263238;stroke-linecap:round;stroke-linejoin:round;stroke-miterlimit:10;" width="16.381" height="26.666"/>
		
			<rect x="223.839" y="112.769" style="fill:#92E3A9;stroke:#263238;stroke-linecap:round;stroke-linejoin:round;stroke-miterlimit:10;" width="16.381" height="26.666"/>
		
			<rect x="199.058" y="151.773" style="fill:#263238;stroke:#263238;stroke-linecap:round;stroke-linejoin:round;stroke-miterlimit:10;" width="16.381" height="26.666"/>
		
			<rect x="224.443" y="151.773" style="fill:#FFFFFF;stroke:#263238;stroke-linecap:round;stroke-linejoin:round;stroke-miterlimit:10;" width="16.381" height="26.666"/>
		
			<rect x="198.916" y="190.776" style="fill:#B2B2B2;stroke:#263238;stroke-linecap:round;stroke-linejoin:round;stroke-miterlimit:10;" width="16.381" height="26.666"/>
	</g>
</g>
<g id="Cards_1">
	<g>
		
			<rect x="47.477" y="112.769" style="fill:#92E3A9;stroke:#263238;stroke-linecap:round;stroke-linejoin:round;stroke-miterlimit:10;" width="16.381" height="26.666"/>
		
			<rect x="72.124" y="112.769" style="fill:#92E3A9;stroke:#263238;stroke-linecap:round;stroke-linejoin:round;stroke-miterlimit:10;" width="16.381" height="26.666"/>
		
			<rect x="96.771" y="112.769" style="fill:#92E3A9;stroke:#263238;stroke-linecap:round;stroke-linejoin:round;stroke-miterlimit:10;" width="16.381" height="26.666"/>
		
			<rect x="121.418" y="112.769" style="fill:#92E3A9;stroke:#263238;stroke-linecap:round;stroke-linejoin:round;stroke-miterlimit:10;" width="16.381" height="26.666"/>
		
			<rect x="146.065" y="112.769" style="fill:#92E3A9;stroke:#263238;stroke-linecap:round;stroke-linejoin:round;stroke-miterlimit:10;" width="16.381" height="26.666"/>
		
			<rect x="47.477" y="151.773" style="fill:#263238;stroke:#263238;stroke-linecap:round;stroke-linejoin:round;stroke-miterlimit:10;" width="16.381" height="26.666"/>
		
			<rect x="72.124" y="151.773" style="fill:#263238;stroke:#263238;stroke-linecap:round;stroke-linejoin:round;stroke-miterlimit:10;" width="16.381" height="26.666"/>
		
			<rect x="96.771" y="151.773" style="fill:#263238;stroke:#263238;stroke-linecap:round;stroke-linejoin:round;stroke-miterlimit:10;" width="16.381" height="26.666"/>
		
			<rect x="121.418" y="151.773" style="fill:#FFFFFF;stroke:#263238;stroke-linecap:round;stroke-linejoin:round;stroke-miterlimit:10;" width="16.381" height="26.666"/>
		
			<rect x="146.065" y="151.773" style="fill:#FFFFFF;stroke:#263238;stroke-linecap:round;stroke-linejoin:round;stroke-miterlimit:10;" width="16.381" height="26.666"/>
		
			<rect x="47.477" y="190.776" style="fill:#FFFFFF;stroke:#263238;stroke-linecap:round;stroke-linejoin:round;stroke-miterlimit:10;" width="16.381" height="26.666"/>
		
			<rect x="72.124" y="190.776" style="fill:#B2B2B2;stroke:#263238;stroke-linecap:round;stroke-linejoin:round;stroke-miterlimit:10;" width="16.381" height="26.666"/>
		
			<rect x="96.771" y="190.776" style="fill:#B2B2B2;stroke:#263238;stroke-linecap:round;stroke-linejoin:round;stroke-miterlimit:10;" width="16.381" height="26.666"/>
	</g>
</g>
<g id="Character_2">
	<g>
		<g>
			<path style="fill:#FFFFFF;stroke:#263238;stroke-linecap:round;stroke-linejoin:round;stroke-miterlimit:10;" d="
				M310.159,199.342c0,0-1.857,2.286-2.857,3.428c-1,1.143-0.857,2,0.143,1.857c1-0.143,3.428-2.714,3.428-2.714
				s-0.286,1.714,0,2.428c0.286,0.714,1.428,1.286,2.571,1.714c1.143,0.429,2.428,1.286,2.857,0.286
				c0.429-1-0.143-3.857-0.143-3.857L310.159,199.342z"/>
			<path style="fill:#FFFFFF;stroke:#263238;stroke-linecap:round;stroke-linejoin:round;stroke-miterlimit:10;" d="
				M344.586,220.055c0,0-20-15.143-21.857-17.285c-1.857-2.143-4.143-3-5.571-3.286c-1.428-0.286-4.714-0.714-4.714-0.714
				s-3.286-2.286-5-3.143c-1.714-0.857-2.571-2.571-2.857-1.429c-0.286,1.143,0.571,2.286,2.286,3.286
				c1.714,1,4.428,3.428,4.428,3.428s4,2.143,3.857,3.857c-0.143,1.714-2.429,2.714-3.286,2.571
				c-0.857-0.143-3.428-2.143-3.714-0.571s3,2.714,4.714,3.143c1.714,0.429,8,1.286,8.857,1.286c0.857,0,4,3.143,4,3.143l15,14.285
				L344.586,220.055z"/>
		</g>
		<g>
			<path style="fill:#FFFFFF;stroke:#263238;stroke-linecap:round;stroke-linejoin:round;stroke-miterlimit:10;" d="
				M344.158,218.913c0,0-3.857,4.571-4.571,8.143s0.429,4.286,2,5.286c1.571,1,3.428,2,3.428,2s-1.714-2.714,1.714-6.428
				c3.428-3.714,5.428-5.428,5.428-5.428S346.729,218.627,344.158,218.913z"/>
			<path style="fill:#FFFFFF;stroke:#263238;stroke-linecap:round;stroke-linejoin:round;stroke-miterlimit:10;" d="
				M346.729,227.912c0,0-3.428,3.143-3.143,4.857c0.286,1.714,2.143,2.857,2.714,3.143c0.571,0.286,3.286,3.143,4.571,4
				s4.143,0.714,4.428,1.286s1.428,3.286,1.428,3.286s6.571-6,8.143-9.428c1.571-3.428,0.143-7.143-1.857-9.286
				c-2-2.143-8.143-3.857-8.857-4c-0.714-0.143-2,0.714-2,0.714L346.729,227.912z"/>
		</g>
		<g>
			<path style="fill:#FFFFFF;stroke:#263238;stroke-linecap:round;stroke-linejoin:round;stroke-miterlimit:10;" d="
				M354.166,362.269c0,0,1.413,6.46,5.249,25.236c3.836,18.776,1.817,19.785,3.23,33.716c1.413,13.93-0.606,18.17-0.606,18.17
				s-7.47,2.423-11.911,3.028c-4.442,0.606-12.315,1.615-12.517,3.634c-0.202,2.019,9.287,5.451,17.766,6.662
				c8.479,1.211,14.334,3.634,15.747,2.423c1.413-1.211,2.423-5.653,2.423-7.672c0-2.019-0.606-4.644-0.606-8.277
				c0-3.634,2.826-25.438,4.038-31.495c1.211-6.057,0.606-14.334-0.606-18.776c-1.211-4.442-3.634-11.508-3.634-11.508l1.009-17.766
				L354.166,362.269z"/>
			<path style="fill:#263238;stroke:#263238;stroke-linecap:round;stroke-linejoin:round;stroke-miterlimit:10;" d="
				M355.968,367.483c0,0,1.095,0.487,8.397,0c7.301-0.487,9.005-1.582,9.005-1.582l0.38-6.256L355.968,367.483z"/>
			<path style="fill:#263238;stroke:#263238;stroke-linecap:round;stroke-linejoin:round;stroke-miterlimit:10;" d="M350.33,449.486
				c0,0-4.442-2.625-4.442-4.643c0-0.698,0.389-1.369,0.893-1.952c-4.215,0.634-9.014,1.592-9.171,3.163
				c-0.202,2.019,9.287,5.451,17.766,6.662c8.479,1.211,14.334,3.634,15.747,2.423c1.413-1.211,2.423-5.653,2.423-7.672
				c0-0.843-0.107-1.8-0.23-2.884c-1.47,0.806-3.458,2.069-4.818,2.884C366.481,448.678,350.33,449.486,350.33,449.486z"/>
		</g>
		<g>
			<path style="fill:#FFFFFF;stroke:#263238;stroke-linecap:round;stroke-linejoin:round;stroke-miterlimit:10;" d="M331.15,360.654
				c0,0,1.413,21.804,2.826,28.063c1.413,6.259,20.391,46.233,22.208,49.665c1.817,3.432,1.817,3.432,1.817,3.432
				s-5.451,4.442-12.921,6.461c-7.47,2.019-12.315,2.221-11.71,4.038c0.606,1.817,5.855,3.432,14.334,4.038s19.987,1.211,21.4,0.606
				c1.413-0.606,2.221-6.461,2.221-9.287c0-2.826-2.221-6.057-3.028-8.681c-0.808-2.625-7.066-25.236-8.278-31.293
				c-1.211-6.057-2.221-6.057-5.653-13.325c-3.432-7.268-3.432-4.038-4.643-9.085c-1.211-5.047,4.442-23.015,4.442-23.015
				L331.15,360.654z"/>
			<polygon style="fill:#263238;stroke:#263238;stroke-linecap:round;stroke-linejoin:round;stroke-miterlimit:10;" points="
				336.321,365.521 351.379,371.545 353.156,367.72 			"/>
			<path style="fill:#263238;stroke:#263238;stroke-linecap:round;stroke-linejoin:round;stroke-miterlimit:10;" d="
				M344.071,450.091c-0.272-0.453-0.396-0.947-0.434-1.441c-6.641,1.676-10.832,1.965-10.267,3.662
				c0.606,1.817,5.855,3.432,14.334,4.038c8.479,0.606,19.987,1.211,21.4,0.606c1.413-0.606,2.221-6.46,2.221-9.287
				c0,0-16.555,5.249-20.795,5.249C346.292,452.918,345.283,452.11,344.071,450.091z"/>
		</g>
		<path style="fill:#92E3A9;stroke:#263238;stroke-linecap:round;stroke-linejoin:round;stroke-miterlimit:10;" d="M331.958,328.957
			c0,0-2.221,16.151-2.019,23.217c0.202,7.066-0.202,11.71-0.202,11.71s14.536,4.845,23.419,3.836
			c8.883-1.009,21.602-6.259,21.602-6.259s1.615-20.593,1.615-21.4c0-0.808,1.395-9.761,1.211-15.747
			c-0.184-5.986-0.202-10.094-0.202-10.094s-19.785,4.845-26.65,4.24c-6.864-0.606-16.555-1.009-16.555-1.009L331.958,328.957z"/>
		<path style="fill:#FFFFFF;stroke:#263238;stroke-linecap:round;stroke-linejoin:round;stroke-miterlimit:10;" d="M355.829,242.995
			c0,0-14.039,12.841-15.751,22.771c-1.712,9.93-9.93,62.492-9.245,66.772c0,0,14.382-2.911,17.806-2.911
			s16.436,10.615,19.004,11.642c2.568,1.027,2.568-1.883,5.308-5.307c2.739-3.424,2.739-7.191,3.253-10.786
			c0.514-3.595,1.198-6.849,1.198-6.849s1.712-6.335,1.883-9.074c0.171-2.739-1.541-10.786-1.541-14.211
			c0-3.424,8.561-22.942,9.245-36.468c0.685-13.526,0.342-16.436,0.342-16.436l-1.712-7.191
			C385.619,234.948,360.794,239.057,355.829,242.995z"/>
		<path style="fill:#FFFFFF;stroke:#263238;stroke-linecap:round;stroke-linejoin:round;stroke-miterlimit:10;" d="M359.999,276.321
			c0,0,3.538,10.139,7.355,16.077"/>
		<path style="fill:#FFFFFF;stroke:#263238;stroke-linecap:round;stroke-linejoin:round;stroke-miterlimit:10;" d="M365.408,302.675
			c0.42,1.066,0.857,2.103,1.31,3.083"/>
		<path style="fill:#FFFFFF;stroke:#263238;stroke-linecap:round;stroke-linejoin:round;stroke-miterlimit:10;" d="M360.143,285.188
			c0,0,1.581,7.054,4.006,14.069"/>
		<g>
			<g>
				<path style="fill:#FFFFFF;stroke:#263238;stroke-linecap:round;stroke-linejoin:round;stroke-miterlimit:10;" d="
					M380.997,202.761c0,0-3.938-9.93-11.3-10.786c-7.362-0.856-14.724,1.712-17.292,7.02c-2.568,5.308-3.938,8.218-3.938,10.958
					c0,2.739,1.883,3.082,1.198,5.65c-0.685,2.568-2.568,2.739-1.712,3.938c0.856,1.198,2.397,1.712,2.397,1.712
					s3.253,9.245,5.308,9.759c2.054,0.514,4.28-1.541,4.28-1.541l3.767,6.335l13.697-3.767c0,0-1.37-11.471-0.514-14.382
					c0.856-2.911,5.307-7.02,5.65-9.245C382.88,206.185,380.997,202.761,380.997,202.761z"/>
			</g>
			<path style="fill:#263238;" d="M351.431,215.365c0,0.972-0.263,1.761-0.587,1.761c-0.324,0-0.587-0.788-0.587-1.761
				c0-0.972,0.263-1.761,0.587-1.761C351.169,213.604,351.431,214.393,351.431,215.365z"/>
			
				<path style="fill:#FFFFFF;stroke:#263238;stroke-width:0.75;stroke-linecap:round;stroke-linejoin:round;stroke-miterlimit:10;" d="
				M349.267,212.423c0,0,1.174-1.844,2.18-0.335"/>
			
				<line style="fill:#FFFFFF;stroke:#263238;stroke-width:0.75;stroke-linecap:round;stroke-linejoin:round;stroke-miterlimit:10;" x1="351.767" y1="224.755" x2="353.443" y2="223.581"/>
		</g>
		<path style="fill:#FFFFFF;stroke:#263238;stroke-linecap:round;stroke-linejoin:round;stroke-miterlimit:10;" d="M378.257,230.839
			c0,0-15.238,3.938-17.464,5.992c-2.226,2.055-4.965,6.164-4.965,6.164s12.67-4.28,16.436-4.965c3.767-0.685,7.533-1.37,7.533-1.37
			S378.942,232.38,378.257,230.839z"/>
		<path style="fill:#263238;stroke:#263238;stroke-linecap:round;stroke-linejoin:round;stroke-miterlimit:10;" d="M380.997,202.761
			c0,0-3.938-9.93-11.3-10.786c-5.973-0.695-11.946,0.866-15.359,4.314l-0.582,0.146c0,0-4.254-0.34-5.785,2.382
			c-1.204,2.14,1.162,5.113,2.231,6.291c-0.234,1.404-0.143,2.671,0.662,3.304c2.397,1.883,4.452,1.199,4.965,3.253
			c0.514,2.055,1.199,3.424,2.226,2.739c1.027-0.685,0.514-3.938,2.911-4.109c2.397-0.171,3.595,2.055,3.253,4.452
			c-0.342,2.397-1.198,3.595-1.027,4.109c0.171,0.514,6.677,5.992,11.3,5.65c0.653-0.048,1.396-0.387,2.188-0.921
			c-0.12-2.479-0.117-4.821,0.209-5.927c0.856-2.911,5.307-7.02,5.65-9.245C382.88,206.185,380.997,202.761,380.997,202.761z"/>
		<path style="fill:#263238;stroke:#263238;stroke-linecap:round;stroke-linejoin:round;stroke-miterlimit:10;" d="M380.997,202.761
			c0,0-9.245,3.938-9.93,14.724c-0.685,10.786,5.307,15.067,4.623,17.292c-0.685,2.226-3.082,3.595-1.37,4.965
			c1.712,1.37,3.253,1.541,2.739,2.911c-0.514,1.37-1.027,3.938-1.027,5.136c0,1.199,3.424,3.082,3.082,4.623
			c-0.342,1.541-1.883,1.883-0.514,2.911c1.37,1.027,1.198,1.712,3.253,1.37c2.055-0.342,1.198-3.595,2.739-3.767
			c1.541-0.171,2.055,1.198,4.451-0.856c2.397-2.055,1.712-4.965,2.055-5.821c0.342-0.856,1.712-0.685,2.568-1.883
			c0.856-1.198,1.198-2.911,0.685-4.623c-0.514-1.712-0.685-2.739-0.171-4.28c0.514-1.541,1.198-3.596,0.685-5.136
			c-0.514-1.541-0.685-3.253-0.685-3.253s2.226-3.082,2.226-5.307c0-2.226-0.342-5.479-1.37-7.705
			c-1.027-2.226-3.253-4.109-3.424-5.136c-0.171-1.027-0.514-3.424-2.568-4.794C386.989,202.761,383.051,202.076,380.997,202.761z"
			/>
		<g>
			<polygon style="fill:#263238;stroke:#263238;stroke-linecap:round;stroke-linejoin:round;stroke-miterlimit:10;" points="
				306.349,245.392 320.73,270.731 330.661,269.875 316.45,245.221 			"/>
			<path style="fill:#FFFFFF;stroke:#263238;stroke-linecap:round;stroke-linejoin:round;stroke-miterlimit:10;" d="M325.673,272.74
				c0,0-0.864-5.309-1.605-6.544c-0.741-1.235-0.864-1.729-1.235-3.704c-0.371-1.976-0.741-2.223-1.976-1.235
				c-1.235,0.988-0.864,3.21-0.741,3.828c0.124,0.617-0.617,0.124-1.729-0.988c-1.111-1.111-3.828-3.21-3.828-3.21
				s-1.852,0.37-1.111,2.099c0.741,1.729,1.111,3.334,1.111,3.334s-0.617,4.815,0.124,6.544c0.741,1.729,3.704,3.457,3.704,3.457
				l3.087,1.729l8.026,12.348c0,0-1.729-0.124,1.111-3.828c2.84-3.704,4.569-4.939,4.445-5.31c-0.123-0.37-8.767-7.038-8.767-7.038
				L325.673,272.74z"/>
			<g>
				<path style="fill:#FFFFFF;stroke:#263238;stroke-linecap:round;stroke-linejoin:round;stroke-miterlimit:10;" d="
					M333.822,279.408c0,0-4.322,0.494-5.803,3.457c-1.482,2.963-2.469,3.828-1.729,5.186c0.741,1.358,2.346,4.322,3.334,4.939
					c0.988,0.617,1.852,0.988,1.852,0.988s-1.605-4.198,0.741-7.038c2.346-2.84,5.556-4.322,5.556-4.322
					S335.427,280.272,333.822,279.408z"/>
				<g>
					<path style="fill:#FFFFFF;stroke:#263238;stroke-linecap:round;stroke-linejoin:round;stroke-miterlimit:10;" d="
						M364.938,257.8c0,0,0.123,3.457,0,6.544c-0.124,3.087-2.963,7.532-2.963,7.532s-1.729,2.223-1.976,4.445
						c-0.247,2.223-0.494,5.68-0.864,6.544c-0.37,0.864-8.89,19.756-10.619,20.744c-1.729,0.988-3.457,0.617-6.544-0.988
						c-3.087-1.605-10.496-8.643-10.496-8.643s-2.469-3.334,0.741-7.038c3.21-3.704,5.556-4.322,5.556-4.322l2.223,0.617
						c0,0,0.864-6.915,1.976-10.001c1.111-3.087,1.852-6.791,1.852-8.396s0.247-3.828,1.482-5.68
						c1.235-1.852,3.087-4.939,5.927-6.05"/>
					<path style="fill:#FFFFFF;stroke:#263238;stroke-linecap:round;stroke-linejoin:round;stroke-miterlimit:10;" d="
						M339.996,283.236c0,0,0.741,8.643,2.099,11.483"/>
					<path style="fill:#FFFFFF;stroke:#263238;stroke-linecap:round;stroke-linejoin:round;stroke-miterlimit:10;" d="
						M340.045,294.717c0.29,1.01,0.607,1.964,0.939,2.718"/>
					<path style="fill:#FFFFFF;stroke:#263238;stroke-linecap:round;stroke-linejoin:round;stroke-miterlimit:10;" d="
						M338.514,287.928c0,0,0.376,2.172,0.958,4.596"/>
				</g>
			</g>
		</g>
	</g>
</g>
<g id="Speech_Bubble">
	<g>
		<path style="fill:#FFFFFF;stroke:#263238;stroke-linecap:round;stroke-linejoin:round;stroke-miterlimit:10;" d="M446.516,170.075
			h-32.841c-4.572,0-8.278,3.706-8.278,8.278v20.139c0,4.572,3.706,8.278,8.278,8.278h3.719l-14.113,14.113l23.931-14.113h19.305
			c4.572,0,8.278-3.706,8.278-8.278v-20.139C454.794,173.781,451.088,170.075,446.516,170.075z"/>
		<g>
			<path style="fill:#263238;" d="M422.329,188.996c0-1.538-1.247-2.785-2.785-2.785c-1.538,0-2.785,1.247-2.785,2.785
				c0,1.538,1.247,2.785,2.785,2.785C421.082,191.781,422.329,190.534,422.329,188.996z"/>
			<path style="fill:#263238;" d="M433.268,188.996c0-1.538-1.247-2.785-2.785-2.785c-1.538,0-2.785,1.247-2.785,2.785
				c0,1.538,1.247,2.785,2.785,2.785C432.021,191.781,433.268,190.534,433.268,188.996z"/>
			<path style="fill:#263238;" d="M444.207,188.996c0-1.538-1.247-2.785-2.785-2.785s-2.785,1.247-2.785,2.785
				c0,1.538,1.247,2.785,2.785,2.785S444.207,190.534,444.207,188.996z"/>
		</g>
	</g>
</g>
<g id="Character_1">
	<g>
		<path style="fill:#FFFFFF;stroke:#263238;stroke-linecap:round;stroke-linejoin:round;stroke-miterlimit:10;" d="M233.766,201.62
			c0,0,0.288,6.375-0.206,8.349c-0.494,1.974-3.948,4.318-3.948,4.318l-0.247,4.812c0,0-3.948,0.864-7.156,1.727
			c-3.208,0.864-8.514,2.714-10.734,1.234l0.123-13.079c0,0-2.961-8.637,3.702-13.696c6.663-5.059,13.079-1.357,14.93,0.864
			S233.766,201.62,233.766,201.62z"/>
		<path style="fill:#263238;stroke:#263238;stroke-linecap:round;stroke-linejoin:round;stroke-miterlimit:10;" d="M225.026,182.044
			c0,0,3.146-1.223,6.118,0.35c2.971,1.573,0.175,6.118,0.175,6.118s3.671,1.748,3.321,4.545c-0.35,2.797-1.224,3.496-1.224,3.496
			l0.35,5.069c0,0-1.748-2.622-2.797-0.524c-1.049,2.098-2.622,4.545-2.797,6.642c-0.175,2.098-2.447,6.642-6.467,7.341
			c-4.02,0.699-10.138-0.524-11.012-1.923c-0.874-1.398-4.545-11.012-3.496-18.878c1.049-7.866,6.992-12.061,10.837-12.76
			C221.88,180.82,225.026,182.044,225.026,182.044z"/>
		<path style="fill:#FFFFFF;stroke:#263238;stroke-linecap:round;stroke-linejoin:round;stroke-miterlimit:10;" d="M232.203,202.319
			c0,0-0.493,0-0.247,2.961c0.247,2.961-0.494,4.195-1.357,2.961c-0.864-1.234-1.11-3.465-0.37-5.305
			C230.969,201.096,232.326,200.098,232.203,202.319z"/>
		<g>
			<path style="fill:#FFFFFF;stroke:#263238;stroke-linecap:round;stroke-linejoin:round;stroke-miterlimit:10;" d="
				M220.225,441.069c0,0,1.906,2.587,3.267,4.901c1.361,2.314,2.451,3.676,0.408,5.173c-2.042,1.497-3.403,1.634-6.398,1.361
				c-2.995-0.272-11.027-2.995-12.524-4.356c-1.498-1.361-0.272-4.22-0.272-4.22l1.451-3.713L220.225,441.069z"/>
			<path style="fill:#FFFFFF;stroke:#263238;stroke-linecap:round;stroke-linejoin:round;stroke-miterlimit:10;" d="
				M204.267,445.651c3.795,1.644,9.805,4.132,13.779,4.403c3.993,0.272,6.043-0.422,6.971-0.916
				c0.076,0.705-0.212,1.342-1.117,2.005c-2.042,1.497-3.403,1.634-6.398,1.361c-2.995-0.272-11.027-2.995-12.524-4.356
				C204.263,447.498,204.17,446.509,204.267,445.651z"/>
		</g>
		<g>
			<g>
				<path style="fill:#FFFFFF;stroke:#263238;stroke-linecap:round;stroke-linejoin:round;stroke-miterlimit:10;" d="
					M165.906,439.571c-4.492,0.408-5.854,4.901-6.943,7.351c-1.089,2.45-2.859,5.309-2.723,7.624
					c0.012,0.203,0.044,0.399,0.073,0.595c-0.805-2.06-1.155-5.201-0.617-6.993c0.817-2.723,4.005-10.905,4.005-10.905
					s7.386-3.282,12.513,0c0,0,0.499,3.962-0.318,6.277C171.896,443.519,170.399,439.163,165.906,439.571z"/>
			</g>
			<path style="fill:#FFFFFF;stroke:#263238;stroke-linecap:round;stroke-linejoin:round;stroke-miterlimit:10;" d="
				M172.214,437.243c0,0,0.499,3.962-0.318,6.277c-0.817,2.314-2.042,4.356-1.906,5.309c0.136,0.953,2.995,4.629,1.089,5.99
				c-1.906,1.361-11.435,2.723-13.205,2.314c-1.77-0.408-2.995-6.262-2.178-8.985c0.817-2.723,4.005-10.905,4.005-10.905
				S167.087,433.961,172.214,437.243z"/>
			<path style="fill:#FFFFFF;stroke:#263238;stroke-linecap:round;stroke-linejoin:round;stroke-miterlimit:10;" d="M155.5,451.52
				c0.241-0.624,0.46-1.137,0.587-1.306c0.405-0.54,4.588-12.28,9.446-12.954c3.203-0.445,5.577,1.57,6.828,2.997
				c-0.019,1.109-0.132,2.321-0.464,3.263c0,0-1.498-4.356-5.99-3.948c-4.492,0.408-5.854,4.901-6.943,7.351
				c-1.089,2.45-2.859,5.309-2.723,7.624c0.012,0.203,0.044,0.399,0.073,0.595C155.908,454.105,155.619,452.794,155.5,451.52z"/>
		</g>
		<path style="fill:#263238;stroke:#263238;stroke-linecap:round;stroke-linejoin:round;stroke-miterlimit:10;" d="M238.847,298.971
			l-0.782,38.165l-17.831,96.978c0,0,2.033,1.251,1.564,3.285c-0.469,2.033-1.251,4.692-1.251,4.692s-5.162,2.972-9.072,2.346
			c-3.91-0.626-5.318-4.223-5.318-4.223s0.156-5.318,0.469-7.039c0.313-1.721,1.564-4.692,1.721-7.195
			c0.156-2.503,2.033-9.229,2.033-9.229l-0.156-82.587h-3.128l-23.932,60.22l-7.508,31.596c0,0,0.939,2.346-1.251,4.223
			c-2.19,1.877-2.659,3.598-2.659,3.598l0.469,3.441c0,0-2.816-0.939-5.787-0.939s-6.726,0.939-6.726,0.939l-0.626-4.536
			c0,0-1.877-1.251-1.721-2.346c0.156-1.095,2.503-4.849,2.659-5.787c0.157-0.939-1.251-6.413-0.782-7.821
			c0.469-1.408,12.044-46.768,12.044-46.768l10.636-50.835l7.039-19.239L238.847,298.971z"/>
		<g>
			<g>
				<path style="fill:#FFFFFF;stroke:#263238;stroke-linecap:round;stroke-linejoin:round;stroke-miterlimit:10;" d="
					M255.074,145.44c0,0-1.777,0.099-2.073,1.185c-0.296,1.086,1.185,3.159,1.185,3.159S254.975,146.526,255.074,145.44z"/>
				<path style="fill:#FFFFFF;stroke:#263238;stroke-linecap:round;stroke-linejoin:round;stroke-miterlimit:10;" d="
					M253.001,146.625c0,0-1.382,0.987-1.283,2.172c0.099,1.185,1.185,2.468,1.777,2.468c0.592,0,0.691-1.481,0.691-1.481
					S253.297,147.612,253.001,146.625z"/>
				<path style="fill:#FFFFFF;stroke:#263238;stroke-linecap:round;stroke-linejoin:round;stroke-miterlimit:10;" d="
					M251.717,148.797c0,0-1.185,0.987-0.592,2.369c0.592,1.382,1.58,1.876,1.58,1.876l0.79-1.777
					C253.494,151.265,252.211,149.784,251.717,148.797z"/>
			</g>
			
				<rect x="249.729" y="122.359" transform="matrix(-1 -1.224647e-16 1.224647e-16 -1 515.8376 271.3849)" style="fill:#92E3A9;stroke:#263238;stroke-linecap:round;stroke-linejoin:round;stroke-miterlimit:10;" width="16.381" height="26.666"/>
			<g>
				<path style="fill:#FFFFFF;stroke:#263238;stroke-linecap:round;stroke-linejoin:round;stroke-miterlimit:10;" d="
					M250.927,191.642c0,0,2.764-13.624,3.554-17.276c0.79-3.653,0.592-10.267,0.592-10.267s-1.678-2.073-1.974-3.159
					c-0.296-1.086,0.592-3.455,0.592-3.455s-0.987-1.975-0.987-3.554c0-1.58,1.481-4.146,1.481-4.146s0.79-2.369,0.889-4.344
					c0.099-1.974,0.395-3.455,1.481-3.159c1.086,0.296,1.678,0.888,1.678,2.369c0,1.481-0.099,4.245-0.099,4.245l5.627,0.197
					c0,0-1.876,13.426-1.777,14.315c0.099,0.889,3.455,26.556,3.258,29.024c-0.197,2.468-0.494,5.726-0.494,5.726
					s-6.614-5.528-9.181-5.627C253.001,192.432,250.927,191.642,250.927,191.642z"/>
				
					<line style="fill:none;stroke:#263238;stroke-linecap:round;stroke-linejoin:round;stroke-miterlimit:10;" x1="253.692" y1="157.484" x2="255.844" y2="160.257"/>
			</g>
		</g>
		<g>
			<path style="fill:#FFFFFF;stroke:#263238;stroke-linecap:round;stroke-linejoin:round;stroke-miterlimit:10;" d="
				M176.261,277.189c0,0-1.153,5.764-3.724,11.616c-2.571,5.852-3.103,10.463-3.103,10.463s2.749,5.32,2.305,7.271
				c-0.443,1.951-1.951,5.763-2.039,6.739c-0.089,0.975-0.709,2.749-1.951,2.305c-1.241-0.443-1.951-1.596-2.837-1.862
				c-0.887-0.266-4.256-1.862-4.611-3.103c-0.355-1.241,0.089-4.965,0.089-4.965s1.243-7.551,1.243-7.905
				c0-0.355-0.179-8.232,0.619-14.35c0.798-6.118,1.951-11.084,1.951-11.084S169.434,277.101,176.261,277.189z"/>
			<path style="fill:#FFFFFF;stroke:#263238;stroke-linecap:round;stroke-linejoin:round;stroke-miterlimit:10;" d="
				M169.877,312.036c0,0-1.241,0-1.685-1.241c-0.443-1.241,0-3.547,0-3.547s-2.128-1.153-2.128-3.281"/>
			<path style="fill:#FFFFFF;stroke:#263238;stroke-linecap:round;stroke-linejoin:round;stroke-miterlimit:10;" d="
				M165.504,304.819c0,0,0.385,1.154-1.428,1.758"/>
			<path style="fill:#FFFFFF;stroke:#263238;stroke-linecap:round;stroke-linejoin:round;stroke-miterlimit:10;" d="M161.932,310.93
				c0,0,0.101-1.871,0.556-2.124c0.455-0.253,1.163-0.354,1.416,0.556c0.253,0.91,0.961,2.326,0.506,2.983
				c-0.455,0.657-0.303,0.809-1.517,0.354"/>
			<path style="fill:#FFFFFF;stroke:#263238;stroke-linecap:round;stroke-linejoin:round;stroke-miterlimit:10;" d="M164.46,309.312
				c0,0,0.91-0.607,1.416-0.303c0.506,0.303,1.315,1.871,1.112,3.034c-0.202,1.163-0.556,1.921-1.567,1.719"/>
			<path style="fill:#FFFFFF;stroke:#263238;stroke-linecap:round;stroke-linejoin:round;stroke-miterlimit:10;" d="
				M166.836,310.121c0,0,0.363-0.168,0.86,0.253c0.497,0.421,1.011,2.73,0.657,3.438c-0.354,0.708-0.556,1.112-1.416,1.062"/>
		</g>
		<g>
			<path style="fill:#92E3A9;stroke:#263238;stroke-linecap:round;stroke-linejoin:round;stroke-miterlimit:10;" d="M229.365,219.1
				l14.73-12.205l6.676-12.116c0,0,5.811-1.113,9.149,1.731c3.338,2.843,3.462,5.811,2.72,7.294
				c-0.742,1.484-12.857,29.424-13.105,29.795c-0.247,0.371-6.058,32.144-6.058,32.144s-4.326,29.888-3.922,31.505
				c0.404,1.617,0.539,4.313-0.943,4.582c-1.482,0.27-32.21,0.809-34.905,1.213c-2.695,0.404-8.49-1.078-12.803-1.752
				c-4.313-0.674-2.695-4.987-2.291-6.738c0.404-1.752,3.504-37.735,3.504-37.735l-13.342,18.059c0,0-0.943,2.022-6.065,0.674
				c-5.121-1.348-6.469-6.873-6.469-7.547c0-0.674,11.051-19.137,12.668-22.237c1.617-3.1,6.064-15.498,10.108-18.059
				c4.043-2.561,20.754-5.66,20.754-5.66L229.365,219.1z"/>
			<g>
				<path style="fill:none;stroke:#263238;stroke-linecap:round;stroke-linejoin:round;stroke-miterlimit:10;" d="M221.402,295.378
					c-1.284,1.006-2.606,1.922-3.959,2.716"/>
				<path style="fill:none;stroke:#263238;stroke-linecap:round;stroke-linejoin:round;stroke-miterlimit:10;" d="M242.277,268.354
					c0,0-7.776,15.552-18.789,25.285"/>
				<path style="fill:none;stroke:#263238;stroke-linecap:round;stroke-linejoin:round;stroke-miterlimit:10;" d="M233.999,287.363
					c0,0-8.585,10.118-16.249,14.103"/>
				<path style="fill:none;stroke:#263238;stroke-linecap:round;stroke-linejoin:round;stroke-miterlimit:10;" d="M224.495,281.231
					c0,0-10.424,11.037-16.25,14.41"/>
				<path style="fill:none;stroke:#263238;stroke-linecap:round;stroke-linejoin:round;stroke-miterlimit:10;" d="M239.084,245.017
					c-0.718,0.89-1.492,1.823-2.326,2.795"/>
				<path style="fill:none;stroke:#263238;stroke-linecap:round;stroke-linejoin:round;stroke-miterlimit:10;" d="M246.876,233.709
					c0,0-1.657,3.314-5.827,8.801"/>
				<polygon style="fill:#263238;stroke:#263238;stroke-linecap:round;stroke-linejoin:round;stroke-miterlimit:10;" points="
					192.117,256.818 194.142,246.586 187.513,263.014 				"/>
			</g>
		</g>
		<path style="fill:#92E3A9;stroke:#263238;stroke-linecap:round;stroke-linejoin:round;stroke-miterlimit:10;" d="M232.143,217.061
			c0,0-1.752-0.809-2.695-0.943c-0.943-0.135-16.576,2.291-17.655,2.426c-1.078,0.135-3.369,3.773-3.369,3.773l20.941-3.218
			L232.143,217.061z"/>
		<path style="fill:#92E3A9;stroke:#263238;stroke-linecap:round;stroke-linejoin:round;stroke-miterlimit:10;" d="M167.483,264.953
			c0,0,0.266,4.699,1.33,6.118c1.064,1.419,5.852,2.305,7.271,2.483c1.419,0.177,3.724,0.089,3.724,0.089s-1.153,2.749-1.773,3.724
			c-0.621,0.975-1.951,1.241-5.675,0.975c-3.724-0.266-8.512-3.901-8.956-5.143c-0.443-1.241,1.241-3.99,1.773-5.32
			C165.71,266.549,167.483,264.953,167.483,264.953z"/>
		<path style="fill:#92E3A9;stroke:#263238;stroke-linecap:round;stroke-linejoin:round;stroke-miterlimit:10;" d="M249.052,197.664
			c0,0-0.691-2.567,0-3.949c0.691-1.382,2.271-3.06,3.751-3.06c1.481,0,5.134,0,8.885,2.962c3.752,2.962,3.949,5.035,3.357,6.713
			c-0.592,1.678-2.172,4.344-2.567,4.344s-2.073-7.305-6.614-8.095C251.322,195.789,249.052,197.664,249.052,197.664z"/>
	</g>
</g>
</svg>
