<?xml version="1.0" encoding="utf-8"?>
<!-- Generator: Adobe Illustrator 27.5.0, SVG Export Plug-In . SVG Version: 6.00 Build 0)  -->
<svg version="1.1" xmlns="http://www.w3.org/2000/svg" xmlns:xlink="http://www.w3.org/1999/xlink" x="0px" y="0px"
	 viewBox="0 0 500 500" style="enable-background:new 0 0 500 500;" xml:space="preserve">
<g id="Floor">
	<ellipse id="Floor_3_" style="fill:#F5F5F5;" cx="250" cy="344.415" rx="239.652" ry="138.363"/>
</g>
<g id="Shadows">
	<path id="Shadow_7_" style="fill:#E0E0E0;" d="M213.526,421.531l71.394,41.219c0.957,0.552,2.508,0.552,3.464,0l96.346-55.625
		c0.957-0.552,0.957-1.448,0-2l-71.393-41.22c-0.957-0.552-2.508-0.552-3.464,0l-96.346,55.626
		C212.569,420.083,212.569,420.979,213.526,421.531z"/>
	<path id="Shadow_16_" style="fill:#E0E0E0;" d="M317.003,331.872l54.414,31.396c0.957,0.552,2.508,0.552,3.464,0l76.42-43.954
		c0.957-0.552,0.957-1.448,0-2l-54.413-31.396c-0.957-0.552-2.508-0.552-3.464,0l-76.421,43.954
		C316.047,330.424,316.047,331.319,317.003,331.872z"/>
	<path id="Shadow_32_" style="opacity:0.1;fill:#455A64;" d="M452.587,343.501l-4.691-2.708c-0.885-0.511-1.976-0.508-2.858,0.009
		l-53.751,31.498l-6.37,7.501l13.272-3.516l54.399-31.41C453.116,344.569,453.116,343.806,452.587,343.501z"/>
	<path id="Shadow_15_" style="fill:#E0E0E0;" d="M149.853,431.439c-5.164,0-10.042-1.192-13.734-3.358
		c-0.221-0.129-0.433-0.259-0.639-0.392c-0.986-0.633-1.469-1.753-1.229-2.853c0.097-0.445,0.576-1.928,2.682-2.229l13.896-2.034
		l0.74-1.549l-3.332-1.953l-13.663,1.996c-0.168,0.024-0.328,0.035-0.485,0.035c-1.206,0-2.316-0.659-2.899-1.721
		c-0.582-1.061-0.539-2.354,0.111-3.377c1.114-1.754,2.807-3.284,5.028-4.547c3.661-2.082,8.455-3.228,13.499-3.228
		c1.898,0,3.775,0.162,5.585,0.482l57.995-33.483c-0.438-1.475-0.477-3.015-0.104-4.5c0.717-2.872,2.868-5.397,6.22-7.303
		c3.664-2.084,8.463-3.231,13.514-3.231c5.164,0,10.042,1.192,13.735,3.358c0.215,0.124,0.43,0.256,0.638,0.39
		c0.979,0.631,1.456,1.747,1.219,2.844c-0.097,0.447-0.575,1.932-2.66,2.238l-13.907,2.036l-0.74,1.549l3.332,1.953l13.657-1.995
		c0.165-0.024,0.327-0.035,0.486-0.035c1.206,0,2.317,0.66,2.9,1.722c0.582,1.063,0.54,2.357-0.11,3.38
		c-1.116,1.753-2.807,3.281-5.025,4.542c-3.662,2.082-8.456,3.228-13.499,3.228c-1.898,0-3.775-0.162-5.584-0.482l-57.996,33.483
		c0.439,1.476,0.477,3.016,0.104,4.502c-0.718,2.87-2.869,5.395-6.22,7.3C159.703,430.291,154.903,431.439,149.853,431.439z"/>
	<path id="Shadow_18_" style="fill:#E0E0E0;" d="M268.606,316.548l-43.84-25.311c-1.129-0.652-1.129-1.708,0-2.36l116.26-67.114
		c1.129-0.652,2.958-0.652,4.087,0l43.84,25.311c1.129,0.652,1.129,1.708,0,2.36l-116.26,67.114
		C271.564,317.2,269.734,317.2,268.606,316.548z"/>
	<path id="Shadow_25_" style="fill:#E0E0E0;" d="M104.221,416.493l128.98-74.382c4.783-2.761,4.783-7.239,0-10l-43.61-25.179
		c-4.783-2.762-12.537-2.762-17.32,0L43.29,381.315c-4.783,2.762-4.783,7.239,0,10l43.61,25.178
		C91.683,419.255,99.438,419.255,104.221,416.493z"/>
</g>
<g id="Calendar_2_">
	<g id="Calendar_1_">
		<g id="Calendar">
			<g>
				<path id="XMLID_987_" style="fill:#27DEBF;" d="M231.889,292.081c-0.608-0.351-0.968-1.228-0.803-1.958l19.226-85.104
					c0.165-0.73,0.824-1.626,1.473-2l114.393-66.045c0.648-0.374,1.667-0.393,2.275-0.042c0.608,0.351,0.968,1.228,0.803,1.958
					l-19.226,85.104c-0.165,0.73-0.824,1.626-1.473,2l-114.393,66.045C233.516,292.413,232.497,292.432,231.889,292.081z"/>
				<path id="XMLID_986_" style="opacity:0.8;fill:#FFFFFF;" d="M231.889,292.081c-0.608-0.351-0.968-1.228-0.803-1.958
					l19.226-85.104c0.165-0.73,0.824-1.626,1.473-2l114.393-66.045c0.648-0.374,1.667-0.393,2.275-0.042
					c0.608,0.351,0.968,1.228,0.803,1.958l-19.226,85.104c-0.165,0.73-0.824,1.626-1.473,2l-114.393,66.045
					C233.516,292.413,232.497,292.432,231.889,292.081z"/>
				<path id="XMLID_985_" style="fill:#27DEBF;" d="M252.515,206.291l-19.226,85.104c-0.165,0.73,0.227,1.019,0.875,0.645
					l114.393-66.045c0.648-0.374,1.308-1.27,1.473-2l19.226-85.104c0.165-0.73-0.227-1.019-0.875-0.644L253.988,204.29
					C253.339,204.665,252.68,205.56,252.515,206.291z"/>
				<path id="XMLID_984_" style="opacity:0.6;fill:#FFFFFF;" d="M252.515,206.291l-19.226,85.104
					c-0.165,0.73,0.227,1.019,0.875,0.645l114.393-66.045c0.648-0.374,1.308-1.27,1.473-2l19.226-85.104
					c0.165-0.73-0.227-1.019-0.875-0.644L253.988,204.29C253.339,204.665,252.68,205.56,252.515,206.291z"/>
				<path id="XMLID_983_" style="opacity:0.05;" d="M252.515,206.291l-19.226,85.104c-0.165,0.73,0.227,1.019,0.875,0.645
					l114.393-66.045c0.648-0.374,1.308-1.27,1.473-2l19.226-85.104c0.165-0.73-0.227-1.019-0.875-0.644L253.988,204.29
					C253.339,204.665,252.68,205.56,252.515,206.291z"/>
			</g>
			<g>
				<g>
					<path id="XMLID_982_" style="fill:#27DEBF;" d="M370.657,138.203c-0.608-0.351-1.627-0.332-2.276,0.042L253.988,204.29
						c-0.648,0.374-1.088,1.279-0.983,2.02l15.037,105.412c0.106,0.741,0.684,1.627,1.292,1.978
						c0.608,0.351,1.627,0.332,2.275-0.042l114.394-66.045c0.648-0.374,1.088-1.279,0.983-2.02L371.95,140.181
						C371.844,139.44,371.265,138.555,370.657,138.203z"/>
					<path id="XMLID_981_" style="opacity:0.8;fill:#FFFFFF;" d="M370.657,138.203c-0.608-0.351-1.627-0.332-2.276,0.042
						L253.988,204.29c-0.648,0.374-1.088,1.279-0.983,2.02l15.037,105.412c0.106,0.741,0.684,1.627,1.292,1.978
						c0.608,0.351,1.627,0.332,2.275-0.042l114.394-66.045c0.648-0.374,1.088-1.279,0.983-2.02L371.95,140.181
						C371.844,139.44,371.265,138.555,370.657,138.203z"/>
				</g>
				<g>
					<path id="XMLID_980_" style="fill:#27DEBF;" d="M255.208,207.582l15.036,105.412c0.106,0.741,0.717,1.039,1.365,0.664
						l114.394-66.045c0.648-0.374,1.088-1.279,0.983-2.02L371.95,140.181c-0.106-0.741-0.717-1.039-1.365-0.664L256.19,205.562
						C255.542,205.936,255.102,206.841,255.208,207.582z"/>
					<path id="XMLID_979_" style="opacity:0.95;fill:#FFFFFF;" d="M255.208,207.582l15.036,105.412
						c0.106,0.741,0.717,1.039,1.365,0.664l114.394-66.045c0.648-0.374,1.088-1.279,0.983-2.02L371.95,140.181
						c-0.106-0.741-0.717-1.039-1.365-0.664L256.19,205.562C255.542,205.936,255.102,206.841,255.208,207.582z"/>
				</g>
			</g>
			<g>
				<g>
					<path style="fill:#27DEBF;" d="M263.543,280.166l-13.432,7.75h-0.005c-0.281-0.064-0.566-0.079-0.827-0.03l-15.844,3.053
						c-0.015,0.005-0.025,0.005-0.03,0.005h-0.015l29.276-16.913L263.543,280.166z"/>
					<path style="opacity:0.5;fill:#FFFFFF;" d="M263.543,280.166l-13.432,7.75h-0.005c-0.281-0.064-0.566-0.079-0.827-0.03
						l-15.844,3.053c-0.015,0.005-0.025,0.005-0.03,0.005h-0.015l29.276-16.913L263.543,280.166z"/>
					<path style="opacity:0.2;" d="M263.543,280.166l-13.432,7.75h-0.005c-0.281-0.064-0.566-0.079-0.827-0.03l-15.844,3.053
						c-0.015,0.005-0.025,0.005-0.03,0.005h-0.015l29.276-16.913L263.543,280.166z"/>
				</g>
				<g>
					<path style="fill:#27DEBF;" d="M267.925,310.899l-16.504-22.235c-0.281-0.374-0.753-0.66-1.251-0.783l13.372-7.715
						L267.925,310.899z"/>
					<path style="opacity:0.6;fill:#FFFFFF;" d="M267.925,310.899l-16.504-22.235c-0.281-0.374-0.753-0.66-1.251-0.783l13.372-7.715
						L267.925,310.899z"/>
					<path style="opacity:0.1;" d="M267.925,310.899l-16.504-22.235c-0.281-0.374-0.753-0.66-1.251-0.783l13.372-7.715
						L267.925,310.899z"/>
				</g>
				<g>
					<path id="XMLID_978_" style="fill:#27DEBF;" d="M267.406,311.937l-15.968-20.742c-0.457-0.593-1.428-0.987-2.169-0.88
						l-14.938,2.156c-0.741,0.107-1.835-0.091-2.443-0.442c-0.608-0.351-0.505-0.751,0.23-0.892l17.162-3.303
						c0.735-0.142,1.693,0.231,2.139,0.832l18.208,24.529c0.446,0.601,0.315,0.804-0.293,0.453
						C268.726,313.296,267.863,312.531,267.406,311.937z"/>
					<path id="XMLID_977_" style="opacity:0.8;fill:#FFFFFF;" d="M267.406,311.937l-15.968-20.742
						c-0.457-0.593-1.428-0.987-2.169-0.88l-14.938,2.156c-0.741,0.107-1.835-0.091-2.443-0.442
						c-0.608-0.351-0.505-0.751,0.23-0.892l17.162-3.303c0.735-0.142,1.693,0.231,2.139,0.832l18.208,24.529
						c0.446,0.601,0.315,0.804-0.293,0.453C268.726,313.296,267.863,312.531,267.406,311.937z"/>
				</g>
			</g>
			<g id="XMLID_888_">
				<path id="XMLID_975_" style="fill:#27DEBF;" d="M369.292,138.471c-0.011-0.618-0.342-1.258-0.835-1.54
					c-0.613-0.347-1.627-0.331-2.277,0.043l-114.395,66.047c-0.314,0.179-0.629,0.488-0.895,0.835
					c-0.276,0.369-0.493,0.792-0.58,1.166l-2.711,12.022l2.202,1.264l116.742-67.4l2.715-12.018
					C369.292,138.734,369.29,138.599,369.292,138.471L369.292,138.471z"/>
				<path id="XMLID_974_" style="opacity:0.6;" d="M369.256,138.89c0.165-0.73-0.227-1.019-0.875-0.644L253.988,204.29
					c-0.648,0.374-1.308,1.27-1.473,2l-2.715,12.018l116.741-67.401L369.256,138.89z"/>
				<path id="XMLID_973_" style="opacity:0.5;" d="M253.09,205.13c-0.277,0.369-0.493,0.786-0.575,1.16l-2.716,12.018l-2.202-1.265
					l2.711-12.022c0.087-0.374,0.304-0.797,0.58-1.166L253.09,205.13z"/>
				<path id="XMLID_972_" style="opacity:0.2;" d="M369.291,138.47c-0.054-0.407-0.407-0.515-0.911-0.222l-114.395,66.042
					c-0.314,0.179-0.634,0.488-0.895,0.84l-2.202-1.274c0.266-0.347,0.58-0.656,0.895-0.835l114.395-66.047
					c0.651-0.374,1.665-0.39,2.277-0.043C368.949,137.212,369.28,137.852,369.291,138.47z"/>
			</g>
			<g id="XMLID_883_">
				<path id="XMLID_887_" style="fill:#27DEBF;" d="M372.089,141.191l0.004-0.002l-0.144-1.008
					c-0.007-0.048-0.021-0.098-0.031-0.146c-0.003-0.013-0.005-0.028-0.008-0.041c0-0.001-0.001-0.002-0.001-0.003
					c-0.167-0.697-0.695-1.466-1.252-1.787c-0.608-0.351-1.627-0.332-2.275,0.042L253.988,204.29
					c-0.333,0.192-0.609,0.524-0.786,0.902l-0.002,0.003c-0.168,0.358-0.244,0.754-0.195,1.117l2.158,15.102l2.201,1.274
					l116.743-67.397L372.089,141.191z"/>
				<path style="opacity:0.4;" d="M374.106,155.292l-116.743,67.396l-2.157-15.106c-0.049-0.359,0.025-0.758,0.197-1.118
					c0.177-0.379,0.458-0.709,0.788-0.901l114.395-66.045c0.571-0.335,1.113-0.138,1.31,0.433c0.005,0.015,0.01,0.03,0.015,0.044
					c0,0.01,0.005,0.025,0.005,0.039c0.015,0.049,0.025,0.098,0.034,0.148l0.143,1.004l-0.005,0.005L374.106,155.292z"/>
				<path id="XMLID_886_" style="opacity:0.5;" d="M257.363,222.688l-2.201-1.274l-2.158-15.102
					c-0.049-0.363,0.027-0.759,0.195-1.117l2.207,1.269c-0.174,0.358-0.25,0.759-0.201,1.117L257.363,222.688z"/>
				<path id="XMLID_884_" style="opacity:0.3;" d="M371.91,139.994c-0.179-0.602-0.737-0.819-1.323-0.477l-114.395,66.047
					c-0.331,0.19-0.613,0.521-0.786,0.9l-2.207-1.269c0.179-0.38,0.455-0.71,0.786-0.906l114.395-66.042
					c0.651-0.374,1.67-0.396,2.277-0.043C371.216,138.53,371.747,139.294,371.91,139.994z"/>
			</g>
			<g>
				<g style="opacity:0.2;">
					<path id="XMLID_882_" d="M265.697,207.705c-0.185-1.298,0.65-2.919,1.866-3.622c1.216-0.702,2.351-0.22,2.537,1.078
						c0.185,1.298-0.65,2.919-1.866,3.622C267.017,209.486,265.882,209.003,265.697,207.705z"/>
					<path id="XMLID_881_" d="M281.129,198.797c-0.185-1.298,0.65-2.919,1.866-3.622c1.216-0.702,2.351-0.219,2.536,1.078
						c0.185,1.298-0.65,2.919-1.866,3.621C282.45,200.578,281.315,200.095,281.129,198.797z"/>
					<path id="XMLID_880_" d="M296.536,189.899c-0.185-1.298,0.65-2.919,1.866-3.622c1.216-0.702,2.351-0.22,2.536,1.078
						c0.185,1.298-0.65,2.919-1.866,3.622C297.857,191.68,296.721,191.197,296.536,189.899z"/>
					<path id="XMLID_874_" d="M327.367,172.1c-0.185-1.298,0.65-2.919,1.866-3.622c1.216-0.702,2.351-0.22,2.536,1.078
						c0.185,1.298-0.65,2.919-1.866,3.622C328.688,173.881,327.552,173.398,327.367,172.1z"/>
					<path id="XMLID_873_" d="M342.8,163.192c-0.185-1.298,0.65-2.919,1.866-3.622c1.216-0.702,2.351-0.22,2.536,1.078
						c0.185,1.298-0.65,2.919-1.866,3.621C344.121,164.973,342.985,164.49,342.8,163.192z"/>
					<path id="XMLID_871_" d="M358.207,154.294c-0.185-1.298,0.65-2.919,1.866-3.622c1.216-0.702,2.351-0.22,2.536,1.078
						c0.185,1.298-0.65,2.919-1.866,3.622C359.528,156.075,358.392,155.592,358.207,154.294z"/>
				</g>
				<g>
					<path style="fill:#37474F;" d="M270.367,203.057c0,0.458-0.039,0.906-0.118,1.334c-0.044,0.231-0.099,0.458-0.167,0.67
						c-0.33,1.108-0.96,1.95-1.842,2.457c-0.581,0.34-1.236,0.512-1.95,0.512c-0.177,0-0.355-0.01-0.537-0.035
						c-0.025-0.094-0.044-0.187-0.059-0.29c-0.079-0.561,0.035-1.187,0.286-1.768c0.468,0.059,0.881-0.015,1.226-0.212
						c0.694-0.404,0.955-1.251,1.044-1.92c0.01-0.035,0.01-0.064,0.015-0.093c0.02-0.192,0.034-0.409,0.034-0.655
						c0-1.91-0.812-4.077-2.058-5.844c-0.443-0.625-0.936-1.197-1.462-1.694c-0.468-0.433-0.955-0.808-1.467-1.103
						c-1.128-0.64-2.161-0.783-2.861-0.384c-0.709,0.409-1.098,1.359-1.098,2.669c0,0.571,0.079,1.182,0.227,1.822l-1.851,1.068
						l-0.035-0.123c-0.271-0.97-0.409-1.9-0.409-2.767c0-2.083,0.758-3.668,2.132-4.461c1.369-0.793,3.117-0.655,4.929,0.389
						c0.802,0.463,1.571,1.088,2.275,1.827c0.497,0.527,0.97,1.108,1.393,1.733C269.441,198.286,270.367,200.817,270.367,203.057z"
						/>
					<path style="fill:#37474F;" d="M285.797,194.15c0,0.458-0.039,0.906-0.113,1.334c-0.044,0.236-0.099,0.468-0.168,0.684
						c-0.335,1.098-0.965,1.935-1.846,2.442c-0.576,0.34-1.236,0.512-1.95,0.512c-0.172,0-0.35-0.01-0.527-0.034
						c-0.03-0.089-0.049-0.187-0.064-0.29c-0.079-0.561,0.03-1.187,0.281-1.768c0.473,0.054,0.886-0.015,1.226-0.212
						c0.699-0.404,0.955-1.251,1.044-1.92c0.005-0.029,0.01-0.064,0.015-0.093c0.025-0.192,0.034-0.404,0.034-0.655
						c0-1.91-0.812-4.077-2.058-5.844c-0.438-0.625-0.93-1.201-1.462-1.694c-0.463-0.433-0.955-0.808-1.467-1.103
						c-1.123-0.64-2.161-0.783-2.861-0.384c-0.704,0.409-1.098,1.354-1.098,2.669c0,0.566,0.079,1.177,0.231,1.817l-1.856,1.068
						l-0.034-0.123c-0.271-0.965-0.409-1.896-0.409-2.762c0-2.083,0.758-3.668,2.137-4.461c1.364-0.793,3.117-0.655,4.924,0.384
						c0.808,0.468,1.576,1.093,2.275,1.832c0.502,0.527,0.97,1.113,1.393,1.733C284.877,189.379,285.797,191.91,285.797,194.15z"/>
					<path style="fill:#37474F;" d="M301.203,185.253c0,0.458-0.039,0.906-0.113,1.334c-0.044,0.236-0.099,0.463-0.168,0.679
						c-0.335,1.103-0.965,1.94-1.846,2.447c-0.576,0.34-1.236,0.512-1.95,0.512c-0.172,0-0.35-0.01-0.527-0.034
						c-0.03-0.089-0.049-0.187-0.064-0.291c-0.079-0.561,0.03-1.186,0.281-1.768c0.473,0.054,0.886-0.015,1.226-0.212
						c0.704-0.404,0.96-1.256,1.044-1.925c0.01-0.029,0.01-0.059,0.015-0.089c0.024-0.192,0.034-0.409,0.034-0.655
						c0-1.91-0.812-4.072-2.058-5.839c-0.438-0.625-0.93-1.201-1.462-1.699c-0.463-0.433-0.955-0.807-1.467-1.103
						c-1.123-0.64-2.161-0.783-2.861-0.384c-0.704,0.409-1.098,1.354-1.098,2.669c0,0.571,0.079,1.182,0.227,1.822l-1.851,1.068
						l-0.034-0.128c-0.271-0.965-0.409-1.896-0.409-2.762c0-2.083,0.758-3.668,2.132-4.461c1.369-0.793,3.122-0.655,4.929,0.389
						c0.802,0.463,1.571,1.088,2.275,1.827c0.502,0.527,0.97,1.108,1.398,1.733C300.283,180.482,301.203,183.013,301.203,185.253z"
						/>
					<path style="fill:#37474F;" d="M332.04,167.479c0,0.453-0.035,0.906-0.113,1.334c-0.044,0.241-0.098,0.468-0.167,0.689
						c-0.335,1.093-0.965,1.93-1.846,2.437c-0.576,0.335-1.231,0.507-1.945,0.507c-0.177,0-0.354-0.01-0.532-0.035
						c-0.03-0.098-0.054-0.202-0.069-0.31c-0.079-0.556,0.03-1.172,0.271-1.748c0.478,0.059,0.896-0.01,1.246-0.207
						c0.704-0.409,0.96-1.27,1.044-1.95c0.005-0.025,0.005-0.044,0.01-0.069c0.025-0.187,0.035-0.404,0.035-0.65
						c0-1.92-0.817-4.091-2.068-5.864c-0.443-0.625-0.936-1.196-1.472-1.694c-0.458-0.423-0.945-0.793-1.448-1.083
						c-1.122-0.645-2.161-0.783-2.861-0.384c-0.704,0.404-1.093,1.354-1.093,2.669c0,0.556,0.069,1.157,0.217,1.792l-1.851,1.068
						l-0.03-0.098c-0.271-0.97-0.409-1.901-0.409-2.762c0-2.088,0.758-3.668,2.137-4.461c1.369-0.793,3.117-0.66,4.924,0.384
						c0.798,0.458,1.561,1.078,2.26,1.812c0.502,0.527,0.975,1.108,1.398,1.733C331.114,162.693,332.04,165.229,332.04,167.479z"/>
					<path style="fill:#37474F;" d="M347.476,158.567c0,0.463-0.039,0.911-0.118,1.339c-0.044,0.241-0.098,0.468-0.167,0.689
						c-0.335,1.093-0.965,1.93-1.841,2.432c-0.581,0.34-1.236,0.512-1.95,0.512c-0.172,0-0.354-0.01-0.532-0.035
						c-0.03-0.098-0.054-0.202-0.069-0.315c-0.079-0.556,0.03-1.167,0.276-1.743c0.477,0.059,0.896-0.01,1.241-0.212
						c0.704-0.404,0.965-1.265,1.049-1.945c0.005-0.025,0.005-0.044,0.01-0.069c0.02-0.192,0.034-0.404,0.034-0.655
						c0-1.915-0.817-4.092-2.073-5.859c-0.443-0.625-0.936-1.201-1.467-1.699c-0.458-0.423-0.945-0.793-1.447-1.083
						c-1.123-0.64-2.161-0.783-2.861-0.379c-0.709,0.404-1.098,1.354-1.098,2.669c0,0.556,0.074,1.157,0.221,1.787l-1.856,1.073
						l-0.025-0.099c-0.271-0.97-0.409-1.896-0.409-2.762c0-2.088,0.758-3.673,2.132-4.461c1.369-0.798,3.121-0.66,4.928,0.384
						c0.798,0.463,1.561,1.083,2.25,1.812h0.005c0.507,0.527,0.975,1.108,1.398,1.733
						C346.545,153.786,347.476,156.322,347.476,158.567z"/>
					<path style="fill:#37474F;" d="M362.882,149.67c0,0.463-0.039,0.911-0.118,1.339c-0.044,0.231-0.098,0.458-0.167,0.669
						c-0.33,1.103-0.96,1.945-1.841,2.457c-0.581,0.335-1.236,0.507-1.95,0.507c-0.172,0-0.35-0.01-0.527-0.034
						c-0.03-0.099-0.054-0.207-0.069-0.315c-0.079-0.556,0.03-1.167,0.271-1.743c0.473,0.059,0.891-0.01,1.241-0.212
						c0.704-0.404,0.96-1.265,1.044-1.945c0.005-0.025,0.005-0.044,0.01-0.069c0.025-0.192,0.039-0.404,0.039-0.655
						c0-1.915-0.817-4.092-2.073-5.859c-0.443-0.625-0.94-1.201-1.472-1.694c-0.458-0.428-0.94-0.793-1.442-1.083
						c-1.128-0.645-2.162-0.783-2.861-0.384c-0.709,0.404-1.098,1.354-1.098,2.669c0,0.556,0.074,1.157,0.222,1.792l-1.856,1.068
						l-0.025-0.099c-0.271-0.97-0.409-1.9-0.409-2.762c0-2.088,0.758-3.668,2.132-4.461c1.369-0.793,3.117-0.66,4.929,0.384
						c0.798,0.458,1.556,1.078,2.255,1.807c0.502,0.527,0.975,1.113,1.398,1.738C361.951,144.889,362.882,147.425,362.882,149.67z"
						/>
				</g>
			</g>
			<g id="XMLID_429_">
				<g id="XMLID_866_">
					<g id="XMLID_869_">
						<polygon id="XMLID_870_" style="fill:#27DEBF;" points="259.912,240.439 376.645,173.099 374.106,155.292 257.363,222.638 
													"/>
					</g>
					<g id="XMLID_867_" style="opacity:0.65;">
						<polygon id="XMLID_868_" style="fill:#FFFFFF;" points="259.912,240.439 376.645,173.099 374.106,155.292 257.363,222.638 
													"/>
					</g>
				</g>
				<g id="XMLID_851_">
					<g id="XMLID_864_">
						<path id="XMLID_865_" style="fill:#27DEBF;" d="M269.115,244.76c0.14,0.983,1.051,1.32,2.033,0.753l8.76-5.055
							c0.983-0.567,1.665-1.824,1.525-2.807c-0.141-0.983-1.051-1.32-2.034-0.753l-8.759,5.055
							C269.657,242.521,268.974,243.777,269.115,244.76z"/>
					</g>
					<g id="XMLID_862_">
						<path id="XMLID_863_" style="fill:#27DEBF;" d="M283.891,236.229c0.14,0.983,1.051,1.32,2.033,0.753l8.761-5.055
							c0.983-0.567,1.665-1.824,1.525-2.807c-0.141-0.983-1.051-1.32-2.034-0.753l-8.759,5.055
							C284.433,233.989,283.75,235.246,283.891,236.229z"/>
					</g>
					<g id="XMLID_860_">
						<path id="XMLID_861_" style="fill:#27DEBF;" d="M298.666,227.697c0.14,0.983,1.051,1.32,2.033,0.753l8.761-5.055
							c0.983-0.567,1.665-1.824,1.524-2.807c-0.141-0.983-1.051-1.32-2.034-0.753l-8.759,5.055
							C299.209,225.458,298.526,226.715,298.666,227.697z"/>
					</g>
					<g id="XMLID_858_">
						<path id="XMLID_859_" style="fill:#27DEBF;" d="M313.442,219.166c0.14,0.983,1.051,1.32,2.033,0.753l8.76-5.055
							c0.983-0.567,1.665-1.824,1.525-2.807c-0.141-0.983-1.051-1.32-2.034-0.753l-8.76,5.055
							C313.985,216.927,313.302,218.183,313.442,219.166z"/>
					</g>
					<g id="XMLID_856_">
						<path id="XMLID_857_" style="fill:#27DEBF;" d="M328.218,210.635c0.14,0.983,1.051,1.32,2.033,0.753l8.761-5.055
							c0.983-0.567,1.665-1.824,1.525-2.807c-0.141-0.983-1.051-1.32-2.034-0.753l-8.76,5.055
							C328.76,208.395,328.078,209.652,328.218,210.635z"/>
					</g>
					<g id="XMLID_854_">
						<path id="XMLID_855_" style="fill:#27DEBF;" d="M342.994,202.103c0.141,0.983,1.051,1.32,2.033,0.753l8.76-5.055
							c0.983-0.567,1.665-1.824,1.524-2.807c-0.141-0.983-1.051-1.32-2.034-0.753l-8.759,5.055
							C343.536,199.864,342.853,201.12,342.994,202.103z"/>
					</g>
					<g id="XMLID_852_">
						<path id="XMLID_853_" style="fill:#27DEBF;" d="M357.77,193.572c0.14,0.983,1.051,1.32,2.033,0.753l8.761-5.055
							c0.983-0.567,1.665-1.824,1.525-2.807c-0.141-0.983-1.051-1.32-2.034-0.753l-8.76,5.055
							C358.312,191.332,357.629,192.589,357.77,193.572z"/>
					</g>
				</g>
				<g>
					<g id="XMLID_792_" style="opacity:0.17;">
						<g id="XMLID_849_">
							<path id="XMLID_850_" style="fill:#27DEBF;" d="M379.803,244.862c-0.245,0.01-0.467-0.152-0.497-0.361l-7.136-49.84
								c-0.03-0.21,0.143-0.388,0.388-0.398c0.244-0.01,0.466,0.152,0.497,0.361l7.136,49.84
								C380.221,244.675,380.048,244.852,379.803,244.862z"/>
						</g>
						<g id="XMLID_847_">
							<path id="XMLID_848_" style="fill:#27DEBF;" d="M365.022,253.397c-0.244,0.01-0.466-0.152-0.497-0.361l-7.137-49.84
								c-0.03-0.21,0.143-0.388,0.388-0.398c0.244-0.01,0.466,0.152,0.497,0.361L365.41,253
								C365.44,253.21,365.266,253.387,365.022,253.397z"/>
						</g>
						<g id="XMLID_845_">
							<path id="XMLID_846_" style="fill:#27DEBF;" d="M350.239,261.932c-0.244,0.01-0.467-0.152-0.497-0.361l-7.137-49.841
								c-0.03-0.21,0.143-0.388,0.388-0.398s0.466,0.152,0.497,0.361l7.137,49.841C350.657,261.744,350.484,261.922,350.239,261.932
								z"/>
						</g>
						<g id="XMLID_843_">
							<path id="XMLID_844_" style="fill:#27DEBF;" d="M335.457,270.466c-0.244,0.01-0.466-0.152-0.497-0.361l-7.137-49.841
								c-0.03-0.21,0.143-0.388,0.388-0.398c0.245-0.01,0.467,0.152,0.497,0.361l7.137,49.841
								C335.875,270.278,335.702,270.456,335.457,270.466z"/>
						</g>
						<g id="XMLID_841_">
							<path id="XMLID_842_" style="fill:#27DEBF;" d="M320.676,279.001c-0.244,0.01-0.467-0.152-0.497-0.361l-7.138-49.841
								c-0.03-0.21,0.143-0.388,0.388-0.398c0.245-0.01,0.467,0.152,0.497,0.361l7.138,49.841
								C321.094,278.813,320.92,278.991,320.676,279.001z"/>
						</g>
						<g id="XMLID_839_">
							<path id="XMLID_840_" style="fill:#27DEBF;" d="M305.893,287.535c-0.244,0.01-0.466-0.152-0.497-0.361l-7.137-49.841
								c-0.03-0.21,0.143-0.387,0.388-0.398c0.244-0.01,0.466,0.152,0.496,0.361l7.137,49.841
								C306.311,287.348,306.138,287.525,305.893,287.535z"/>
						</g>
						<g id="XMLID_837_">
							<path id="XMLID_838_" style="fill:#27DEBF;" d="M291.111,296.07c-0.244,0.01-0.467-0.152-0.497-0.361l-7.137-49.841
								c-0.03-0.21,0.143-0.388,0.388-0.398c0.244-0.01,0.466,0.152,0.496,0.361l7.137,49.841
								C291.529,295.882,291.355,296.06,291.111,296.07z"/>
						</g>
						<g id="XMLID_835_">
							<path id="XMLID_836_" style="fill:#27DEBF;" d="M276.329,304.605c-0.245,0.01-0.467-0.152-0.497-0.361l-7.138-49.841
								c-0.03-0.21,0.143-0.388,0.388-0.398c0.244-0.01,0.466,0.152,0.496,0.361l7.138,49.841
								C276.747,304.417,276.574,304.595,276.329,304.605z"/>
						</g>
						<g id="XMLID_833_">
							<path id="XMLID_834_" style="fill:#27DEBF;" d="M270.976,267.224c-0.152,0.006-0.311-0.056-0.41-0.174
								c-0.149-0.177-0.109-0.412,0.087-0.525l103.475-59.742c0.195-0.115,0.476-0.063,0.624,0.114
								c0.149,0.177,0.109,0.411-0.087,0.525l-103.475,59.742C271.124,267.202,271.051,267.221,270.976,267.224z"/>
						</g>
						<g id="XMLID_831_">
							<path id="XMLID_832_" style="fill:#27DEBF;" d="M272.76,279.684c-0.152,0.006-0.311-0.056-0.41-0.174
								c-0.149-0.177-0.109-0.412,0.087-0.525l103.475-59.741c0.195-0.115,0.476-0.064,0.624,0.114
								c0.149,0.176,0.109,0.411-0.087,0.525l-103.475,59.741C272.908,279.662,272.835,279.681,272.76,279.684z"/>
						</g>
						<g id="XMLID_829_">
							<path id="XMLID_830_" style="fill:#27DEBF;" d="M274.544,292.144c-0.152,0.006-0.311-0.056-0.41-0.174
								c-0.149-0.176-0.109-0.412,0.087-0.525l103.475-59.741c0.195-0.115,0.476-0.063,0.624,0.114
								c0.149,0.177,0.109,0.412-0.087,0.525l-103.475,59.741C274.692,292.121,274.619,292.141,274.544,292.144z"/>
						</g>
						<g id="XMLID_800_">
							<path id="XMLID_801_" style="fill:#27DEBF;" d="M276.329,304.605c-0.076,0.003-0.155-0.011-0.228-0.042
								c-0.146-0.062-0.249-0.184-0.268-0.319l-7.138-49.841c-0.02-0.136,0.047-0.264,0.174-0.337l103.476-59.741
								c0.127-0.074,0.296-0.081,0.442-0.018c0.146,0.062,0.249,0.184,0.268,0.319l7.136,49.84c0.019,0.136-0.047,0.264-0.174,0.337
								l-103.474,59.742C276.48,304.582,276.405,304.602,276.329,304.605z M269.611,254.585l7.012,48.965l102.652-59.268
								l-7.01-48.963L269.611,254.585z"/>
						</g>
					</g>
					<g id="XMLID_465_" style="opacity:0.17;">
						<g id="XMLID_773_">
							<path id="XMLID_774_" d="M379.803,244.862c-0.245,0.01-0.467-0.152-0.497-0.361l-7.136-49.84
								c-0.03-0.21,0.143-0.388,0.388-0.398c0.244-0.01,0.466,0.152,0.497,0.361l7.136,49.84
								C380.221,244.675,380.048,244.852,379.803,244.862z"/>
						</g>
						<g id="XMLID_768_">
							<path id="XMLID_770_" d="M365.022,253.397c-0.244,0.01-0.466-0.152-0.497-0.361l-7.137-49.84
								c-0.03-0.21,0.143-0.388,0.388-0.398c0.244-0.01,0.466,0.152,0.497,0.361L365.41,253
								C365.44,253.21,365.266,253.387,365.022,253.397z"/>
						</g>
						<g id="XMLID_765_">
							<path id="XMLID_767_" d="M350.239,261.932c-0.244,0.01-0.467-0.152-0.497-0.361l-7.137-49.841
								c-0.03-0.21,0.143-0.388,0.388-0.398s0.466,0.152,0.497,0.361l7.137,49.841C350.657,261.744,350.484,261.922,350.239,261.932
								z"/>
						</g>
						<g id="XMLID_720_">
							<path id="XMLID_762_" d="M335.457,270.466c-0.244,0.01-0.466-0.152-0.497-0.361l-7.137-49.841
								c-0.03-0.21,0.143-0.388,0.388-0.398c0.245-0.01,0.467,0.152,0.497,0.361l7.137,49.841
								C335.875,270.278,335.702,270.456,335.457,270.466z"/>
						</g>
						<g id="XMLID_711_">
							<path id="XMLID_715_" d="M320.676,279.001c-0.244,0.01-0.467-0.152-0.497-0.361l-7.138-49.841
								c-0.03-0.21,0.143-0.388,0.388-0.398c0.245-0.01,0.467,0.152,0.497,0.361l7.138,49.841
								C321.094,278.813,320.92,278.991,320.676,279.001z"/>
						</g>
						<g id="XMLID_703_">
							<path id="XMLID_710_" d="M305.893,287.535c-0.244,0.01-0.466-0.152-0.497-0.361l-7.137-49.841
								c-0.03-0.21,0.143-0.387,0.388-0.398c0.244-0.01,0.466,0.152,0.496,0.361l7.137,49.841
								C306.311,287.348,306.138,287.525,305.893,287.535z"/>
						</g>
						<g id="XMLID_701_">
							<path id="XMLID_702_" d="M291.111,296.07c-0.244,0.01-0.467-0.152-0.497-0.361l-7.137-49.841
								c-0.03-0.21,0.143-0.388,0.388-0.398c0.244-0.01,0.466,0.152,0.496,0.361l7.137,49.841
								C291.529,295.882,291.355,296.06,291.111,296.07z"/>
						</g>
						<g id="XMLID_694_">
							<path id="XMLID_700_" d="M276.329,304.605c-0.245,0.01-0.467-0.152-0.497-0.361l-7.138-49.841
								c-0.03-0.21,0.143-0.388,0.388-0.398c0.244-0.01,0.466,0.152,0.496,0.361l7.138,49.841
								C276.747,304.417,276.574,304.595,276.329,304.605z"/>
						</g>
						<g id="XMLID_687_">
							<path id="XMLID_688_" d="M270.976,267.224c-0.152,0.006-0.311-0.056-0.41-0.174c-0.149-0.177-0.109-0.412,0.087-0.525
								l103.475-59.742c0.195-0.115,0.476-0.063,0.624,0.114c0.149,0.177,0.109,0.411-0.087,0.525l-103.475,59.742
								C271.124,267.202,271.051,267.221,270.976,267.224z"/>
						</g>
						<g id="XMLID_605_">
							<path id="XMLID_670_" d="M272.76,279.684c-0.152,0.006-0.311-0.056-0.41-0.174c-0.149-0.177-0.109-0.412,0.087-0.525
								l103.475-59.741c0.195-0.115,0.476-0.064,0.624,0.114c0.149,0.176,0.109,0.411-0.087,0.525l-103.475,59.741
								C272.908,279.662,272.835,279.681,272.76,279.684z"/>
						</g>
						<g id="XMLID_544_">
							<path id="XMLID_602_" d="M274.544,292.144c-0.152,0.006-0.311-0.056-0.41-0.174c-0.149-0.176-0.109-0.412,0.087-0.525
								l103.475-59.741c0.195-0.115,0.476-0.063,0.624,0.114c0.149,0.177,0.109,0.412-0.087,0.525l-103.475,59.741
								C274.692,292.121,274.619,292.141,274.544,292.144z"/>
						</g>
						<g id="XMLID_469_">
							<path id="XMLID_470_" d="M276.329,304.605c-0.076,0.003-0.155-0.011-0.228-0.042c-0.146-0.062-0.249-0.184-0.268-0.319
								l-7.138-49.841c-0.02-0.136,0.047-0.264,0.174-0.337l103.476-59.741c0.127-0.074,0.296-0.081,0.442-0.018
								c0.146,0.062,0.249,0.184,0.268,0.319l7.136,49.84c0.019,0.136-0.047,0.264-0.174,0.337l-103.474,59.742
								C276.48,304.582,276.405,304.602,276.329,304.605z M269.611,254.585l7.012,48.965l102.652-59.268l-7.01-48.963
								L269.611,254.585z"/>
						</g>
					</g>
				</g>
			</g>
		</g>
		<g>
			<path style="fill:#455A64;" d="M302.231,207.879c0,0.655-0.077,1.273-0.231,1.854c-0.155,0.58-0.365,1.113-0.629,1.598
				s-0.57,0.911-0.918,1.276c-0.348,0.364-0.716,0.658-1.103,0.881c-0.419,0.241-0.802,0.378-1.15,0.411
				c-0.348,0.031-0.65-0.029-0.904-0.185c-0.254-0.157-0.454-0.409-0.599-0.756c-0.146-0.348-0.221-0.789-0.228-1.322
				c0-0.088,0.021-0.177,0.063-0.266c0.042-0.088,0.091-0.149,0.15-0.183l1.237-0.716c0.123-0.07,0.204-0.086,0.242-0.05
				c0.039,0.038,0.077,0.13,0.117,0.277c0.077,0.292,0.197,0.479,0.362,0.556c0.165,0.08,0.402,0.029,0.71-0.149
				c0.368-0.212,0.643-0.513,0.827-0.902c0.184-0.388,0.276-0.852,0.276-1.387v-4.153l-3.307,1.909
				c-0.07,0.041-0.132,0.037-0.184-0.014c-0.051-0.048-0.077-0.128-0.077-0.237v-1.578c0-0.109,0.025-0.218,0.077-0.328
				c0.051-0.108,0.113-0.184,0.184-0.225l4.826-2.786c0.07-0.041,0.131-0.036,0.184,0.013c0.051,0.05,0.077,0.13,0.077,0.239
				V207.879z"/>
			<path style="fill:#455A64;" d="M303.508,208.735c0-0.655,0.163-1.291,0.489-1.906c0.325-0.614,0.856-1.233,1.591-1.855
				l1.131-0.951c0-0.239-0.042-0.411-0.126-0.516c-0.083-0.105-0.229-0.099-0.434,0.02c-0.149,0.085-0.263,0.184-0.344,0.296
				c-0.08,0.11-0.14,0.202-0.178,0.274c-0.058,0.113-0.113,0.195-0.164,0.243c-0.052,0.05-0.114,0.095-0.185,0.136l-1.228,0.709
				c-0.065,0.037-0.119,0.038-0.161,0.002c-0.041-0.036-0.059-0.104-0.052-0.208c0.013-0.235,0.078-0.511,0.194-0.826
				c0.115-0.316,0.275-0.635,0.477-0.961c0.204-0.326,0.446-0.639,0.726-0.941c0.28-0.3,0.585-0.544,0.914-0.734
				c0.393-0.227,0.734-0.35,1.024-0.368c0.291-0.018,0.531,0.048,0.721,0.203c0.19,0.152,0.331,0.384,0.421,0.694
				c0.09,0.312,0.135,0.685,0.135,1.122v4.51c0,0.109-0.026,0.219-0.077,0.327c-0.052,0.109-0.113,0.185-0.184,0.226l-1.219,0.704
				c-0.07,0.04-0.132,0.036-0.184-0.015c-0.051-0.048-0.078-0.128-0.078-0.237v-0.415c-0.154,0.386-0.346,0.732-0.575,1.039
				c-0.23,0.305-0.53,0.567-0.905,0.783c-0.277,0.16-0.524,0.241-0.74,0.248c-0.216,0.006-0.397-0.055-0.541-0.178
				c-0.145-0.125-0.256-0.309-0.334-0.552C303.547,209.363,303.508,209.073,303.508,208.735z M305.714,207.803
				c0.142-0.082,0.274-0.194,0.397-0.34c0.123-0.145,0.229-0.309,0.319-0.489c0.089-0.18,0.16-0.374,0.212-0.577
				c0.052-0.204,0.078-0.403,0.078-0.602l-0.89,0.722c-0.173,0.149-0.314,0.315-0.421,0.495c-0.106,0.182-0.158,0.365-0.158,0.554
				s0.04,0.297,0.121,0.325C305.452,207.919,305.565,207.889,305.714,207.803z"/>
			<path style="fill:#455A64;" d="M315.171,203.804c0,0.109-0.025,0.218-0.078,0.327c-0.052,0.109-0.112,0.185-0.184,0.225
				l-1.218,0.704c-0.071,0.041-0.132,0.037-0.184-0.014c-0.051-0.048-0.078-0.128-0.078-0.237v-3.767
				c0-0.428-0.068-0.73-0.204-0.911c-0.135-0.179-0.347-0.186-0.638-0.019c-0.29,0.168-0.501,0.42-0.633,0.753
				c-0.133,0.335-0.198,0.714-0.198,1.142v3.767c0,0.109-0.026,0.218-0.078,0.327c-0.052,0.109-0.113,0.185-0.184,0.226
				l-1.218,0.703c-0.071,0.041-0.132,0.037-0.185-0.014c-0.051-0.048-0.077-0.128-0.077-0.237v-6.938
				c0-0.109,0.025-0.218,0.077-0.327c0.052-0.109,0.113-0.185,0.185-0.226l1.17-0.675c0.07-0.042,0.132-0.038,0.184,0.013
				c0.051,0.049,0.078,0.128,0.078,0.237v0.342c0.051-0.128,0.116-0.27,0.193-0.424c0.077-0.153,0.171-0.304,0.28-0.451
				c0.109-0.148,0.237-0.292,0.382-0.429c0.146-0.139,0.315-0.263,0.508-0.375c0.31-0.179,0.594-0.276,0.851-0.292
				c0.258-0.015,0.479,0.065,0.662,0.236c0.185,0.171,0.327,0.442,0.431,0.809c0.102,0.367,0.154,0.844,0.154,1.429V203.804z"/>
			<path style="fill:#455A64;" d="M316.679,195.995c0-0.109,0.026-0.218,0.078-0.327c0.051-0.109,0.112-0.185,0.184-0.225
				l1.218-0.704c0.071-0.041,0.133-0.037,0.184,0.013c0.052,0.049,0.079,0.129,0.079,0.238v3.767c0,0.426,0.061,0.734,0.184,0.921
				c0.122,0.188,0.325,0.199,0.608,0.036s0.485-0.409,0.604-0.737c0.119-0.326,0.178-0.704,0.178-1.13v-3.767
				c0-0.109,0.026-0.218,0.078-0.328c0.051-0.108,0.112-0.183,0.184-0.225l1.218-0.703c0.071-0.041,0.133-0.037,0.184,0.013
				c0.052,0.05,0.079,0.129,0.079,0.238v6.938c0,0.109-0.026,0.219-0.079,0.327c-0.05,0.109-0.112,0.185-0.184,0.226l-1.121,0.647
				c-0.071,0.041-0.133,0.037-0.184-0.014c-0.052-0.048-0.078-0.128-0.078-0.237v-0.342c-0.051,0.139-0.115,0.281-0.189,0.428
				c-0.074,0.147-0.167,0.295-0.275,0.442c-0.11,0.148-0.238,0.291-0.383,0.429c-0.145,0.139-0.317,0.265-0.517,0.381
				c-0.625,0.361-1.123,0.376-1.494,0.043c-0.37-0.332-0.556-1.083-0.556-2.254V195.995z"/>
			<path style="fill:#455A64;" d="M323.013,197.474c0-0.655,0.163-1.291,0.489-1.906c0.325-0.614,0.855-1.233,1.59-1.855
				l1.131-0.951c0-0.239-0.042-0.411-0.125-0.516c-0.084-0.105-0.23-0.099-0.435,0.02c-0.148,0.085-0.262,0.184-0.343,0.296
				c-0.081,0.11-0.141,0.202-0.178,0.274c-0.059,0.113-0.113,0.195-0.165,0.243c-0.051,0.05-0.113,0.096-0.185,0.136l-1.228,0.709
				c-0.064,0.037-0.117,0.038-0.16,0.002c-0.042-0.036-0.059-0.104-0.052-0.208c0.013-0.235,0.077-0.511,0.193-0.826
				c0.115-0.316,0.275-0.635,0.478-0.961c0.204-0.326,0.445-0.639,0.726-0.941c0.279-0.3,0.583-0.545,0.913-0.734
				c0.393-0.227,0.736-0.35,1.025-0.368c0.29-0.018,0.531,0.048,0.721,0.202c0.19,0.152,0.331,0.384,0.421,0.693
				c0.089,0.312,0.135,0.685,0.135,1.122v4.51c0,0.109-0.027,0.219-0.078,0.327c-0.051,0.109-0.112,0.185-0.184,0.226l-1.218,0.704
				c-0.071,0.04-0.133,0.036-0.184-0.015c-0.053-0.048-0.079-0.128-0.079-0.237v-0.415c-0.154,0.386-0.346,0.732-0.575,1.039
				c-0.229,0.305-0.53,0.567-0.904,0.783c-0.277,0.16-0.523,0.241-0.74,0.248c-0.216,0.006-0.396-0.055-0.542-0.178
				c-0.144-0.125-0.256-0.309-0.334-0.552C323.052,198.102,323.013,197.812,323.013,197.474z M325.218,196.542
				c0.143-0.082,0.274-0.194,0.397-0.34c0.123-0.145,0.229-0.309,0.319-0.489c0.09-0.18,0.16-0.373,0.213-0.577
				c0.051-0.204,0.077-0.403,0.077-0.602l-0.89,0.722c-0.173,0.149-0.313,0.315-0.421,0.495c-0.106,0.182-0.158,0.365-0.158,0.554
				c0,0.189,0.04,0.297,0.121,0.325C324.956,196.658,325.069,196.629,325.218,196.542z"/>
			<path style="fill:#455A64;" d="M333.032,186.153c0.07-0.042,0.131-0.037,0.182,0.013c0.052,0.049,0.078,0.129,0.078,0.238v1.504
				c0,0.109-0.025,0.218-0.078,0.327c-0.051,0.109-0.112,0.185-0.182,0.225l-0.88,0.508c-0.593,0.343-0.89,0.971-0.89,1.883v3.663
				c0,0.109-0.026,0.218-0.077,0.327c-0.052,0.109-0.114,0.185-0.185,0.226l-1.218,0.703c-0.071,0.041-0.132,0.037-0.184-0.014
				c-0.052-0.048-0.078-0.128-0.078-0.237v-6.938c0-0.109,0.025-0.218,0.078-0.327c0.051-0.109,0.112-0.185,0.184-0.226l1.122-0.647
				c0.071-0.041,0.132-0.036,0.184,0.013c0.052,0.05,0.078,0.13,0.078,0.239v0.342c0.148-0.304,0.326-0.586,0.537-0.847
				c0.209-0.259,0.459-0.473,0.749-0.641L333.032,186.153z"/>
			<path style="fill:#455A64;" d="M337.063,194.037c-0.019,0.09-0.051,0.189-0.096,0.294c-0.045,0.106-0.106,0.18-0.185,0.227
				l-1.267,0.73c-0.064,0.038-0.119,0.035-0.164-0.008c-0.045-0.044-0.068-0.115-0.068-0.215c0-0.04,0.004-0.077,0.01-0.11
				l0.734-3.089l-1.953-5.854c-0.006-0.026-0.01-0.06-0.01-0.1c0-0.099,0.023-0.196,0.068-0.292c0.044-0.094,0.1-0.162,0.165-0.199
				l1.267-0.73c0.078-0.045,0.138-0.04,0.184,0.013c0.044,0.053,0.078,0.114,0.096,0.182l1.073,3.251l1.064-4.485
				c0.019-0.09,0.051-0.189,0.095-0.294c0.046-0.105,0.108-0.18,0.185-0.226l1.276-0.737c0.065-0.037,0.12-0.035,0.165,0.009
				c0.045,0.042,0.068,0.114,0.068,0.213c0,0.04-0.004,0.077-0.011,0.11L337.063,194.037z"/>
		</g>
		<g id="XMLID_450_">
			<path id="XMLID_451_" style="fill:#F28F8F;" d="M367.906,214.612l0.869,1.228c0.055,0.077,0.143,0.102,0.236,0.066l1.469-0.571
				c0.233-0.091,0.373,0.201,0.237,0.494l-0.858,1.842c-0.054,0.116-0.068,0.246-0.036,0.348l0.496,1.615
				c0.079,0.257-0.129,0.607-0.351,0.592l-1.399-0.09c-0.088-0.006-0.185,0.05-0.258,0.149l-1.162,1.569
				c-0.185,0.249-0.453,0.174-0.454-0.128l-0.007-1.897c-0.001-0.12-0.046-0.215-0.123-0.256l-1.214-0.646
				c-0.193-0.103-0.151-0.499,0.07-0.671l1.395-1.083c0.088-0.068,0.156-0.183,0.182-0.307l0.412-1.967
				C367.475,214.586,367.769,214.417,367.906,214.612z"/>
		</g>
		<g id="XMLID_448_">
			<path id="XMLID_449_" style="fill:#F28F8F;" d="M376.437,214.135c-0.382-1.83-1.462-3.614-3.745-4.194
				c-2.799-0.712-4.787,1.205-6.234,2.813c-0.382,0.425,0.442,0.583,0.748,0.288c1.524-1.47,4.512-2.998,6.636-1.201
				c2.082,1.762,1.545,4.574,0.898,6.64c-1.076,3.439-4.579,6.849-9.205,6.744c-10.092-0.231-1.433-15.773,4.366-16.871
				c0.468-0.089,0.71-0.743,0.06-0.807c-3.043-0.297-4.843,2.075-6.462,3.873c-1.805,2.004-3.134,4.218-3.858,6.73
				c-1.337,4.636,2.406,10.111,8.632,8.069C373.718,224.434,377.534,219.395,376.437,214.135z"/>
		</g>
		<g id="XMLID_453_">
			<path id="XMLID_454_" style="fill:#F28F8F;" d="M304.907,269.061c-0.382-1.83-1.462-3.614-3.745-4.194
				c-2.799-0.712-4.787,1.205-6.234,2.813c-0.382,0.424,0.442,0.583,0.748,0.288c1.524-1.47,4.512-2.998,6.636-1.201
				c2.082,1.762,1.545,4.574,0.899,6.64c-1.076,3.439-4.579,6.849-9.205,6.744c-10.092-0.231-1.433-15.773,4.366-16.871
				c0.468-0.089,0.71-0.743,0.06-0.807c-3.043-0.297-4.843,2.075-6.462,3.873c-1.805,2.004-3.134,4.218-3.859,6.73
				c-1.337,4.636,2.406,10.111,8.632,8.069C302.188,279.36,306.004,274.322,304.907,269.061z"/>
		</g>
	</g>
</g>
<g id="Gears">
	<g id="Gears_1_">
		<g id="XMLID_1668_">
			<path id="XMLID_1684_" style="fill:#E0E0E0;" d="M337.347,82.206l-1.28-7.432l-6.631,4.364c-0.664-1.27-1.518-2.291-2.521-3.061
				l3.173-8.583l-5.908-1.321l-4.365,8.317c-1.447,0.223-2.974,0.711-4.547,1.481l-1.889-6.269l-7.076,5.563l0.463,7.39
				c-1.432,1.593-2.743,3.336-3.912,5.17l-5.847-0.289l-4.099,9.189l5.02,2.141c-0.53,1.977-0.871,3.937-0.991,5.823l-6.374,5.861
				l1.28,7.432l6.631-4.364c0.664,1.27,1.518,2.291,2.522,3.061l-3.173,8.583l5.908,1.321l6.244-6.087
				c1.447-0.223,1.094-2.94,2.668-3.71l1.889,6.269l7.076-5.563l-0.182-2.907c1.432-1.593,6.84-5.109,8.009-6.942l1.468-2.422
				l4.098-9.189l-1.91-3.459l-2.119-4.505L337.347,82.206z M315.734,106.701c-5.428,4.268-7.082,5.199-8.064-0.502
				c-0.982-5.701,2.194-14.396,7.622-18.663c5.428-4.268,7.511-4.587,8.493,1.115C324.767,94.351,321.162,102.433,315.734,106.701z"
				/>
			<polygon id="XMLID_1683_" style="fill:#F5F5F5;" points="324.18,66.172 331.91,70.63 327.545,78.947 319.815,74.489 			"/>
			<polygon id="XMLID_1682_" style="fill:#F5F5F5;" points="343.798,79.232 337.166,83.596 329.436,79.138 336.068,74.774 			"/>
			<polygon id="XMLID_1681_" style="fill:#E0E0E0;" points="342.733,100.489 337.712,98.348 329.982,93.89 335.003,96.031 			"/>
			<polygon id="XMLID_1680_" style="fill:#E0E0E0;" points="297.824,125.261 305.554,129.719 308.727,121.136 300.997,116.678 			
				"/>
			<polygon id="XMLID_1679_" style="fill:#E0E0E0;" points="322.263,127.512 314.533,123.054 312.644,116.785 320.374,121.243 			
				"/>
			<path id="XMLID_1676_" style="fill:#EBEBEB;" d="M345.077,86.663l-1.28-7.431l-6.632,4.364c-0.664-1.27-1.518-2.291-2.522-3.061
				l3.174-8.583l-5.909-1.321l-4.365,8.317c-1.447,0.223-2.974,0.711-4.547,1.481l-1.889-6.269l-7.076,5.563l0.463,7.39
				c-1.432,1.593-2.743,3.336-3.912,5.17l-5.847-0.289l-4.099,9.189l5.02,2.141c-0.531,1.977-0.871,3.937-0.992,5.823l-6.373,5.861
				l1.28,7.432l6.631-4.364c0.664,1.27,1.518,2.291,2.522,3.062l-3.173,8.583l5.908,1.321l4.365-8.317
				c1.447-0.223,2.974-0.711,4.547-1.481l1.889,6.269l7.076-5.563l-0.463-7.39c1.432-1.593,2.743-3.336,3.912-5.17l5.847,0.289
				l4.098-9.188l-5.02-2.141c0.53-1.977,0.871-3.937,0.991-5.823L345.077,86.663z M323.464,111.158
				c-5.429,4.268-10.625,3.106-11.607-2.596c-0.982-5.701,2.623-13.783,8.051-18.051c5.428-4.268,10.625-3.106,11.607,2.596
				C332.497,98.809,328.892,106.891,323.464,111.158z"/>
			<polygon id="XMLID_1675_" style="fill:#F5F5F5;" points="321.109,74.158 313.379,69.701 306.303,75.264 314.033,79.721 			"/>
			<polygon id="XMLID_1674_" style="fill:#E0E0E0;" points="306.303,75.264 306.766,82.653 314.496,87.111 314.033,79.721 			"/>
			<polygon id="XMLID_1673_" style="fill:#F5F5F5;" points="310.584,92.281 302.854,87.824 297.008,87.535 304.738,91.993 			"/>
			<polygon id="XMLID_1672_" style="fill:#E0E0E0;" points="297.008,87.535 292.909,96.723 300.639,101.181 304.738,91.993 			"/>
			<polygon id="XMLID_1671_" style="fill:#F5F5F5;" points="304.668,109.146 296.938,104.688 290.564,110.549 298.295,115.007 			
				"/>
			<polygon id="XMLID_1670_" style="fill:#E0E0E0;" points="299.574,122.438 291.844,117.98 290.564,110.549 298.295,115.007 			"/>
			<polygon id="XMLID_1669_" style="fill:#F5F5F5;" points="331.91,70.63 324.18,66.172 330.088,67.493 337.818,71.951 			"/>
		</g>
		<g id="XMLID_1638_">
			<path id="XMLID_1665_" style="fill:#E0E0E0;" d="M275.957,66.99v-11.1l-8.834,3.982c-0.533-2.05-1.344-3.807-2.386-5.257
				l5.566-11.222l-6.797-3.924L256.569,49.9c-1.777-0.177-3.705-0.002-5.746,0.562l-0.968-9.641l-9.613,5.55l-0.968,10.76
				c-2.042,1.794-3.969,3.844-5.746,6.073l-6.936-2.422l-6.797,11.773l5.566,4.796c-1.042,2.653-1.854,5.348-2.386,8.013
				l-8.834,6.218v11.1l8.834-3.982c0.533,2.05,1.344,3.808,2.386,5.258l-5.566,11.222l6.797,3.924l6.936-10.431
				c1.777,0.177,3.704,0.002,5.746-0.562l0.968,9.641l9.613-5.55l0.968-10.759c2.865-0.956,5.93-3.174,7.707-5.403l4.976,1.752
				l6.797-11.773l-4.171-3.594c1.042-2.653,1.153-6.895,0.991-9.215L275.957,66.99z M245.048,94.705
				c-7.375,4.258-11.959,1.237-11.959-7.278c0-8.516,6.094-18.948,13.469-23.206c7.375-4.258,11.843-1.16,11.843,7.355
				S252.423,90.447,245.048,94.705z"/>
			<polygon id="XMLID_1664_" style="fill:#F5F5F5;" points="271.236,43.926 263.505,39.468 256.569,49.9 264.299,54.357 			"/>
			<polygon id="XMLID_1663_" style="fill:#F5F5F5;" points="283.687,60.348 275.957,55.89 267.123,59.873 274.853,64.33 			"/>
			<polygon id="XMLID_1662_" style="fill:#E0E0E0;" points="247.972,122.209 240.242,117.751 239.273,108.109 247.004,112.567 			
				"/>
			<polygon id="XMLID_1661_" style="fill:#E0E0E0;" points="219.794,115.179 227.524,119.636 233.09,108.414 225.36,103.956 			"/>
			<path id="XMLID_1649_" style="fill:#EBEBEB;" d="M283.687,71.448v-11.1l-8.834,3.982c-0.533-2.05-1.344-3.807-2.386-5.257
				l5.566-11.223l-6.797-3.924l-6.936,10.431c-1.777-0.177-3.704-0.002-5.746,0.562l-0.968-9.641l-9.613,5.55l-0.968,10.759
				c-2.042,1.794-3.969,3.844-5.746,6.073l-6.936-2.422l-6.797,11.773l5.566,4.796c-1.042,2.653-1.854,5.348-2.386,8.013
				l-8.834,6.218v11.1l8.834-3.982c0.533,2.05,1.344,3.808,2.386,5.258l-5.566,11.223l6.797,3.924l6.936-10.431
				c1.777,0.177,3.704,0.002,5.746-0.562l0.968,9.641l9.613-5.55l0.968-10.759c2.042-1.794,3.969-3.844,5.746-6.073l6.936,2.422
				l6.797-11.773l-5.566-4.796c1.042-2.653,1.854-5.348,2.386-8.013L283.687,71.448z M252.778,99.162
				c-7.375,4.258-13.353,0.806-13.353-7.709c0-8.516,5.979-18.871,13.353-23.129c7.375-4.258,13.353-0.806,13.353,7.71
				C266.132,84.549,260.153,94.905,252.778,99.162z"/>
			<polygon id="XMLID_1647_" style="fill:#F5F5F5;" points="233.527,63.203 241.258,67.66 234.321,65.238 226.591,60.781 			"/>
			
				<rect id="XMLID_1646_" x="220.26" y="64.435" transform="matrix(0.4996 -0.8663 0.8663 0.4996 53.9444 231.1727)" style="fill:#F5F5F5;" width="13.595" height="8.923"/>
			<polygon id="XMLID_1645_" style="fill:#E0E0E0;" points="219.794,72.554 227.524,77.012 233.09,81.807 225.36,77.35 			"/>
			<polygon id="XMLID_1644_" style="fill:#F5F5F5;" points="222.973,85.363 230.704,89.82 221.87,96.039 214.139,91.581 			"/>
			<polygon id="XMLID_1643_" style="fill:#E0E0E0;" points="214.139,91.581 221.87,96.039 221.87,107.138 214.139,102.681 			"/>
			<polygon id="XMLID_1642_" style="fill:#F5F5F5;" points="257.585,45.278 249.855,40.82 240.242,46.37 247.972,50.828 			"/>
		</g>
	</g>
</g>
<g id="Wrench_1_">
	<g id="Wrench">
		<path style="fill:#37474F;" d="M249.61,372.973c0,0.26-0.07,0.52-0.21,0.74c-0.86,1.31-2.22,2.55-4.07,3.6
			c-4.98,2.83-12.14,3.58-18.29,2.29l-60.76,35.08c0.04,0.06,0.07,0.12,0.11,0.19l0.95-0.16v3.45c0,2.6-1.73,5.21-5.21,7.18
			c-6.88,3.92-17.96,3.87-24.75-0.11c-0.12-0.07-0.294-0.178-0.437-0.269c-0.14-0.089-0.253-0.296-0.253-0.461v-3.251l15.82,0.911
			l2.31-4.82l-1.29-0.76l-4.78-2.8l-14.72,2.14c-0.39,0.06-0.75-0.25-0.75-0.65v-3.62l4.28-0.71c0,0,12.14-3.59,18.3-2.29
			l60.75-35.08c-0.73-1.16-1.08-2.38-1.05-3.61c-0.01,0.01-0.01-3.42-0.01-3.42l0.92,0.33c0.84-1.45,2.27-2.81,4.29-3.96
			c6.89-3.92,25.43-2.8,25.43-2.8v3.38c0,0.16-0.12,0.3-0.28,0.32l-15.53,2.28l-1.01,2.12l-1.3,2.7l6.08,3.56l15.09-5.45l0.37,0.65
			V372.973z"/>
		<path style="fill:#263238;" d="M154.82,413.883l-1.29,2.7l-4.78-2.8l-14.718,2.141c-0.397,0.058-0.752-0.25-0.752-0.651v-3.622
			l15.47-1.327L154.82,413.883z"/>
		<path style="fill:#263238;" d="M230.38,362.633l15.81-2.551v3.407c0,0.163-0.12,0.301-0.281,0.325l-15.529,2.279l-1.01,2.12
			l-1.29-0.76L230.38,362.633z"/>
		<polygon id="XMLID_1899_" style="fill:#37474F;" points="227.036,379.6 227.037,376.143 166.28,411.221 166.279,414.678 		"/>
		<path id="XMLID_1905_" style="fill:#455A64;" d="M137.565,407.484c-1.908,1.085-3.291,2.357-4.155,3.716
			c-0.374,0.589,0.112,1.347,0.803,1.246l14.533-2.123l6.071,3.559l-2.308,4.823l-15.223,2.23c-0.568,0.081-0.754,0.312-0.454,0.505
			c0.178,0.114,0.361,0.227,0.551,0.338c6.782,3.976,17.862,4.025,24.749,0.109c5.048-2.87,6.423-7.064,4.147-10.667l60.757-35.078
			c6.152,1.296,13.31,0.544,18.29-2.288c1.906-1.083,3.287-2.354,4.151-3.71c0.376-0.591-0.112-1.352-0.806-1.251l-14.526,2.122
			l-6.071-3.559l2.308-4.823l15.223-2.23c0.546-0.08,0.737-0.322,0.454-0.505c-0.178-0.115-0.361-0.227-0.551-0.338
			c-6.782-3.976-17.862-4.025-24.749-0.11c-5.048,2.87-6.424,7.064-4.147,10.667l-60.757,35.078
			C149.703,403.9,142.545,404.653,137.565,407.484z"/>
	</g>
</g>
<g id="Books_1_">
	<g id="Books">
		<g id="XMLID_462_">
			<g id="XMLID_667_">
				<polygon id="XMLID_673_" style="fill:#455A64;" points="322.788,328.323 374.043,357.757 447.411,315.397 396.16,285.961 				
					"/>
				<path id="XMLID_672_" style="fill:#F5F5F5;" d="M374.508,355.977l-49.812-28.756c1.028-2.935,0.951-6.36-0.213-10.268
					l49.561,28.515C374.044,345.469,374.791,347.948,374.508,355.977z"/>
				<path id="XMLID_671_" style="fill:#263238;" d="M372.035,342.261c2.088,1.206,3.781,4.138,3.781,6.55v7.652
					c0,2.412-1.693,3.389-3.781,2.183l-49.243-28.427l-0.005-1.896l48.725,27.988c1.253,0.724,2.268,0.137,2.267-1.31l-0.036-7.091
					c-0.001-1.447-1.018-3.206-2.271-3.93l-48.68-27.999l0-2.148L372.035,342.261z"/>
				<path id="XMLID_669_" style="fill:#455A64;" d="M322.792,313.838l73.369-42.36l49.24,28.426
					c2.087,1.205,3.781,4.139,3.781,6.549l0.002,7.653c-0.002,1.201-0.421,2.048-1.109,2.445l-73.369,42.36
					c0.688-0.397,1.107-1.244,1.109-2.445l0.006-7.657c0-2.41-1.694-5.345-3.781-6.549L322.792,313.838z"/>
				<path id="XMLID_668_" style="fill:#37474F;" d="M374.713,345.082c0.684,1.185,1.108,2.521,1.108,3.726l-0.006,7.657
					c-0.002,1.201-0.421,2.048-1.109,2.445l73.369-42.36c0.688-0.397,1.107-1.244,1.109-2.445l-0.002-7.653
					c0-1.205-0.423-2.541-1.108-3.726L374.713,345.082z"/>
			</g>
			<g id="XMLID_463_">
				<polygon id="XMLID_666_" style="fill:#27DEBF;" points="339.357,310.652 380.156,334.052 447.556,295.138 406.761,271.736 				
					"/>
				<polygon id="XMLID_660_" style="opacity:0.35;" points="339.357,310.652 380.156,334.052 447.556,295.138 406.761,271.736 				
					"/>
				<path id="XMLID_648_" style="fill:#EBEBEB;" d="M380.621,332.272l-39.356-22.722c1.028-2.935,0.951-6.36-0.213-10.268
					l39.105,22.481C380.156,321.764,380.903,324.243,380.621,332.272z"/>
				<path id="XMLID_613_" style="fill:#F5F5F5;" d="M380.621,332.272l-39.356-22.722c1.028-2.935,0.951-6.36-0.213-10.268
					l39.105,22.481C380.156,321.764,380.903,324.243,380.621,332.272z"/>
				<path id="XMLID_612_" style="fill:#27DEBF;" d="M378.148,318.556c2.088,1.206,3.781,4.138,3.781,6.55l0,7.652
					c0,2.412-1.693,3.389-3.781,2.183l-38.787-22.393l-0.004-1.896l38.269,21.955c1.253,0.723,2.268,0.137,2.267-1.31l-0.036-7.091
					c-0.001-1.447-1.018-3.206-2.271-3.93l-38.224-21.965l0-2.148L378.148,318.556z"/>
				<path id="XMLID_611_" style="opacity:0.25;" d="M378.148,318.556c2.088,1.206,3.781,4.138,3.781,6.55l0,7.652
					c0,2.412-1.693,3.389-3.781,2.183l-38.787-22.393l-0.004-1.896l38.269,21.955c1.253,0.723,2.268,0.137,2.267-1.31l-0.036-7.091
					c-0.001-1.447-1.018-3.206-2.271-3.93l-38.224-21.965l0-2.148L378.148,318.556z"/>
				<path id="XMLID_608_" style="fill:#27DEBF;" d="M339.361,296.167l67.402-38.914l38.783,22.392
					c2.087,1.205,3.781,4.139,3.781,6.549l0.002,7.653c-0.002,1.201-0.421,2.048-1.109,2.445l-67.401,38.914
					c0.688-0.397,1.107-1.244,1.109-2.445l0.006-7.657c0-2.41-1.694-5.344-3.781-6.549L339.361,296.167z"/>
				<path id="XMLID_464_" style="opacity:0.15;" d="M380.825,321.377c0.684,1.185,1.108,2.521,1.108,3.726l-0.006,7.657
					c-0.002,1.201-0.421,2.048-1.109,2.445l67.401-38.914c0.688-0.397,1.107-1.244,1.109-2.445l-0.002-7.653
					c0-1.205-0.423-2.541-1.108-3.726L380.825,321.377z"/>
			</g>
		</g>
	</g>
</g>
<g id="List_1_">
	<g id="List">
		<g id="XMLID_730_">
			<path id="XMLID_2890_" style="fill:#27DEBF;" d="M382.583,401.135v1.698c0,0.535-0.376,1.186-0.839,1.453l-94.345,54.471
				c-0.463,0.268-1.215,0.268-1.678,0l-67.585-39.02c-0.463-0.268-0.839-0.918-0.839-1.453v-1.698c0-0.535,0.376-1.186,0.839-1.453
				l94.346-54.471c0.463-0.268,1.215-0.267,1.678,0l67.585,39.02C382.207,399.949,382.583,400.599,382.583,401.135z"/>
			<path id="XMLID_732_" style="opacity:0.4;fill:#FFFFFF;" d="M218.022,415.208c-0.347,0.267-0.308,0.652,0.113,0.893l67.585,39.02
				c0.23,0.136,0.531,0.199,0.837,0.202l0.001,3.637c-0.306-0.003-0.603-0.068-0.837-0.202l-67.585-39.02
				c-0.464-0.269-0.84-0.92-0.839-1.453l-0.001-1.7C217.296,416.097,217.613,415.507,218.022,415.208z"/>
			<path id="XMLID_731_" style="opacity:0.15;" d="M381.876,399.776c0.018,0.008,0.031,0.022,0.042,0.034
				c0.024,0.018,0.047,0.035,0.069,0.058c0.009,0.008,0.018,0.016,0.027,0.024c0.039,0.036,0.074,0.074,0.111,0.115l0.01,0.017
				c0.22,0.258,0.381,0.59,0.429,0.907c0.013,0.069,0.017,0.138,0.019,0.204l0.001,1.7c-0.004,0.535-0.377,1.184-0.84,1.452
				l-94.347,54.471c-0.232,0.134-0.536,0.202-0.84,0.203l-0.001-3.637c0.306,0.002,0.611-0.066,0.842-0.2l94.347-54.471
				c0.164-0.095,0.272-0.211,0.319-0.332c0.058-0.155,0.026-0.319-0.101-0.461C381.938,399.829,381.909,399.802,381.876,399.776z"/>
		</g>
		<g>
			<path style="fill:#263238;" d="M357.038,375.733c-0.004-0.636-0.38-1.26-1.398-1.849c-0.959-0.551-1.971-0.777-2.997-0.807
				c-0.09-0.002-0.174-0.003-0.261-0.001c-2.627,0.009-5.372,1.227-7.697,1.562c-0.031,0.004-0.071,0.01-0.102,0.014
				c-3.271,0.448-4.976-0.573-6.604-0.734c-0.278-0.028-0.531-0.038-0.781-0.037c-0.361-0.002-0.707,0.019-1.096,0.042
				c-0.951,0.057-2.136,0.124-4.265-0.097c-1.121-0.118-1.957-0.172-2.589-0.183c-0.087,0.001-0.171,0.001-0.25,0.001
				c-1.21,0.005-1.594,0.187-1.906,0.367l-3.782,2.184v1.258l28.321,16.355l3.786-2.186c0.317-0.183,0.641-0.414,0.637-1.15
				c-0.001-0.197,0.001-1.022,0.001-1.243c0.001-0.378-0.087-0.891-0.31-1.605c-0.112-0.356-0.18-0.663-0.221-0.937
				c0.05-0.335,0.121-0.608,0.122-0.891c0-0.147,0.002-1.036,0-1.279c-0.001-0.141-0.021-0.284-0.068-0.439
				c-0.188-0.644-1.074-1.309-1.367-2.269c0.032-0.111,0.073-0.224,0.124-0.342c0.585-1.353,2.71-2.948,2.704-4.472
				C357.035,376.798,357.039,375.956,357.038,375.733z M351.217,379.355c-0.621,0.358-1.324,0.621-2.044,0.782
				c-1.435,0.323-2.921,0.241-3.85-0.297c-0.321-0.186-0.544-0.411-0.681-0.658c0.241-0.516,0.753-1.039,1.525-1.484
				c1.584-0.914,3.721-1.209,5.184-0.782c0.257,0.075,0.495,0.175,0.704,0.296c0.323,0.186,0.547,0.412,0.683,0.661
				C352.498,378.388,351.987,378.91,351.217,379.355z"/>
			<path id="XMLID_737_" style="fill:#37474F;" d="M327.09,374.012l-3.782,2.184l28.321,16.355l3.786-2.186
				c0.48-0.277,0.979-0.659,0.328-2.74c-0.656-2.082,0.125-2.596-0.167-3.546c-0.277-0.95-2.08-1.945-1.243-3.869
				c0.83-1.92,4.767-4.327,1.308-6.326c-0.959-0.551-1.971-0.777-2.997-0.807c-0.09-0.002-0.174-0.003-0.261-0.001
				c-2.627,0.009-5.372,1.227-7.697,1.562c-0.031,0.004-0.071,0.01-0.102,0.014c-3.271,0.448-4.976-0.573-6.604-0.734
				c-0.278-0.028-0.531-0.038-0.781-0.037c-0.36-0.002-0.707,0.019-1.096,0.042c-0.952,0.057-2.136,0.124-4.265-0.097
				c-1.121-0.118-1.957-0.172-2.589-0.183c-0.087,0.001-0.171,0.001-0.25,0.001C327.787,373.65,327.402,373.832,327.09,374.012z
				 M350.452,388.666c0.493-0.285,1.187-0.345,1.56-0.131c0.368,0.213,0.262,0.619-0.229,0.902
				c-0.493,0.285-1.189,0.342-1.557,0.129C349.853,389.352,349.962,388.949,350.452,388.666z M346.167,376.44
				c1.584-0.915,3.721-1.209,5.184-0.782c0.257,0.075,0.495,0.175,0.704,0.296c1.395,0.806,1.021,2.328-0.838,3.401
				c-0.621,0.358-1.324,0.621-2.044,0.782c-1.436,0.323-2.921,0.241-3.85-0.296C343.928,379.035,344.307,377.514,346.167,376.44z
				 M328.596,376.051c0.493-0.285,1.189-0.342,1.557-0.129c0.373,0.214,0.274,0.616-0.219,0.901c-0.49,0.283-1.186,0.34-1.559,0.126
				C328.007,376.736,328.107,376.333,328.596,376.051z"/>
		</g>
		<g id="XMLID_704_">
			<path id="XMLID_707_" style="fill:#F5F5F5;" d="M289.179,449.195l-58.811-33.955c-0.278-0.16-0.503-0.551-0.504-0.872l0-0.655
				c0-0.321,0.225-0.711,0.503-0.872l77.701-44.861c0.278-0.16,0.729-0.161,1.007,0l58.811,33.954
				c0.278,0.16,0.503,0.551,0.503,0.872v0.657c0,0.321-0.225,0.711-0.503,0.872l-77.701,44.861
				C289.908,449.355,289.457,449.355,289.179,449.195z"/>
			<path id="XMLID_706_" style="fill:#FAFAFA;" d="M230.245,412.933c-0.147,0.156-0.107,0.357,0.121,0.489l58.812,33.955
				c0.14,0.08,0.322,0.123,0.504,0.121l0.001,1.816c-0.182,0.002-0.367-0.039-0.504-0.121l-58.812-33.955
				c-0.279-0.157-0.505-0.55-0.502-0.869l-0.003-0.656C229.865,413.438,230.025,413.118,230.245,412.933z"/>
			<path id="XMLID_705_" style="fill:#E0E0E0;" d="M367.993,402.012c0.049,0.039,0.094,0.085,0.137,0.136
				c0.019,0.025,0.04,0.053,0.059,0.078c0.057,0.083,0.106,0.176,0.143,0.271c0.023,0.063,0.04,0.124,0.049,0.186
				c0.006,0.041,0.009,0.085,0.009,0.124l0.001,0.653c-0.001,0.323-0.225,0.711-0.503,0.872l-77.7,44.86
				c-0.141,0.081-0.322,0.124-0.503,0.12l-0.001-1.816c0.182-0.002,0.366-0.041,0.503-0.121l77.701-44.86
				C368.124,402.379,368.16,402.17,367.993,402.012z"/>
		</g>
		<g id="XMLID_675_">
			<g id="XMLID_1191_">
				<g id="XMLID_1198_">
					<polygon id="XMLID_1202_" style="fill:#FAFAFA;" points="303.179,378.074 312.625,383.451 303.179,388.904 293.734,383.527 
											"/>
					<path id="XMLID_1199_" style="fill:#455A64;" d="M303.18,378.521l-8.667,5.004l8.664,4.932l8.668-5.003L303.18,378.521z
						 M293.398,383.721c-0.033-0.058-0.052-0.124-0.052-0.193c-0.001-0.139,0.073-0.267,0.194-0.337l9.445-5.453
						c0.119-0.069,0.266-0.069,0.385-0.001l9.446,5.377c0.12,0.069,0.196,0.197,0.196,0.335c0.001,0.139-0.073,0.267-0.194,0.337
						l-9.446,5.452c-0.119,0.069-0.266,0.069-0.385,0.001l-9.445-5.376C293.482,383.83,293.432,383.78,293.398,383.721z"/>
				</g>
				<g id="XMLID_1194_">
					<path id="XMLID_1197_" style="fill:#E0E0E0;" d="M317.015,386.368l-0.683,0.394c-0.371,0.214-0.371,0.561,0,0.775
						l33.287,19.221c0.371,0.214,0.972,0.214,1.342,0l0.685-0.396c0.371-0.214,0.371-0.561,0-0.775l-33.289-19.22
						C317.986,386.155,317.385,386.155,317.015,386.368z"/>
					<path id="XMLID_1196_" style="fill:#E0E0E0;" d="M312.889,388.75l-0.683,0.394c-0.371,0.214-0.371,0.561,0,0.775l33.287,19.221
						c0.371,0.214,0.972,0.214,1.342,0l0.685-0.396c0.371-0.214,0.371-0.561,0-0.775l-33.289-19.22
						C313.861,388.536,313.26,388.536,312.889,388.75z"/>
					<path id="XMLID_1195_" style="fill:#E0E0E0;" d="M308.786,391.119l-0.683,0.394c-0.371,0.214-0.371,0.561,0,0.775
						l33.287,19.221c0.371,0.214,0.972,0.214,1.342,0l0.685-0.396c0.371-0.214,0.371-0.561,0-0.775l-33.289-19.22
						C309.758,390.905,309.157,390.905,308.786,391.119z"/>
				</g>
				<g id="XMLID_1192_">
					<polygon id="XMLID_1193_" style="fill:#27DEBF;" points="300.774,385.06 301.501,382.121 303.694,381.94 303.28,383.613 
						315.333,382.619 315.02,383.885 					"/>
				</g>
			</g>
			<g id="XMLID_1180_">
				<g id="XMLID_1186_">
					<polygon id="XMLID_1190_" style="fill:#FAFAFA;" points="285.863,388.072 295.309,393.449 285.863,398.901 276.418,393.525 
											"/>
					<path id="XMLID_1187_" style="fill:#455A64;" d="M285.864,388.519l-8.667,5.004l8.664,4.932l8.668-5.003L285.864,388.519z
						 M276.082,393.719c-0.033-0.058-0.052-0.124-0.052-0.193c-0.001-0.139,0.073-0.267,0.194-0.337l9.445-5.453
						c0.119-0.069,0.266-0.069,0.385-0.001l9.446,5.377c0.12,0.069,0.196,0.197,0.196,0.335c0,0.139-0.074,0.267-0.194,0.337
						l-9.446,5.452c-0.119,0.069-0.266,0.069-0.385,0.001l-9.445-5.376C276.165,393.827,276.116,393.778,276.082,393.719z"/>
				</g>
				<g id="XMLID_1182_">
					<path id="XMLID_1185_" style="fill:#E0E0E0;" d="M299.698,396.366l-0.683,0.394c-0.371,0.214-0.371,0.561,0,0.775
						l33.287,19.221c0.371,0.214,0.972,0.214,1.342,0l0.685-0.396c0.371-0.214,0.371-0.561,0-0.775l-33.289-19.22
						C300.67,396.152,300.069,396.152,299.698,396.366z"/>
					<path id="XMLID_1184_" style="fill:#E0E0E0;" d="M295.573,398.748l-0.683,0.394c-0.371,0.214-0.371,0.561,0,0.775
						l33.287,19.221c0.371,0.214,0.972,0.214,1.342,0l0.686-0.396c0.371-0.214,0.371-0.561,0-0.775l-33.289-19.22
						C296.545,398.534,295.944,398.534,295.573,398.748z"/>
					<path id="XMLID_1183_" style="fill:#E0E0E0;" d="M291.47,401.117l-0.683,0.394c-0.371,0.214-0.371,0.561,0,0.775l33.287,19.221
						c0.371,0.214,0.972,0.214,1.342,0l0.685-0.396c0.371-0.214,0.371-0.561,0-0.775l-33.289-19.22
						C292.442,400.903,291.841,400.903,291.47,401.117z"/>
				</g>
				<polygon id="XMLID_1181_" style="fill:#27DEBF;" points="283.458,395.057 284.185,392.118 286.377,391.938 285.963,393.611 
					298.017,392.617 297.703,393.882 				"/>
			</g>
			<g id="XMLID_1169_">
				<g id="XMLID_1175_">
					<path id="XMLID_1176_" style="fill:#455A64;" d="M268.548,398.516l-8.667,5.004l8.664,4.932l8.668-5.003L268.548,398.516z
						 M258.766,403.716c-0.033-0.058-0.052-0.124-0.052-0.193c-0.001-0.139,0.073-0.267,0.194-0.337l9.445-5.453
						c0.119-0.069,0.266-0.069,0.385-0.001l9.446,5.377c0.12,0.069,0.196,0.197,0.196,0.335c0.001,0.139-0.073,0.267-0.194,0.337
						l-9.446,5.452c-0.119,0.069-0.266,0.069-0.385,0.001l-9.445-5.376C258.849,403.825,258.8,403.775,258.766,403.716z"/>
				</g>
				<g id="XMLID_1171_">
					<path id="XMLID_1174_" style="fill:#E0E0E0;" d="M282.382,406.364l-0.683,0.394c-0.371,0.214-0.371,0.561,0,0.775
						l33.287,19.221c0.371,0.214,0.972,0.214,1.342,0l0.685-0.396c0.371-0.214,0.371-0.561,0-0.775l-33.289-19.22
						C283.354,406.15,282.753,406.15,282.382,406.364z"/>
					<path id="XMLID_1173_" style="fill:#E0E0E0;" d="M278.257,408.745l-0.683,0.395c-0.371,0.214-0.371,0.561,0,0.775
						l33.287,19.221c0.371,0.214,0.972,0.214,1.342,0l0.685-0.396c0.371-0.214,0.371-0.561,0-0.775l-33.289-19.22
						C279.228,408.531,278.627,408.531,278.257,408.745z"/>
					<path id="XMLID_1172_" style="fill:#E0E0E0;" d="M274.154,411.114l-0.683,0.394c-0.371,0.214-0.371,0.561,0,0.775
						l33.287,19.221c0.371,0.214,0.972,0.214,1.342,0l0.686-0.396c0.371-0.214,0.371-0.561,0-0.775l-33.289-19.22
						C275.126,410.9,274.525,410.9,274.154,411.114z"/>
				</g>
				<polygon id="XMLID_681_" style="fill:#27DEBF;" points="265.913,405.462 266.641,402.523 268.833,402.342 268.419,404.016 
					280.472,403.022 280.159,404.287 				"/>
			</g>
			<g id="XMLID_676_">
				<g id="XMLID_1164_">
					<path id="XMLID_1165_" style="fill:#455A64;" d="M251.232,408.514l-8.667,5.004l8.664,4.932l8.668-5.003L251.232,408.514z
						 M241.45,413.714c-0.033-0.058-0.052-0.124-0.052-0.192c-0.001-0.139,0.074-0.267,0.194-0.337l9.445-5.453
						c0.119-0.069,0.266-0.069,0.385-0.001l9.446,5.377c0.12,0.069,0.196,0.197,0.196,0.335c0,0.139-0.074,0.268-0.194,0.337
						l-9.446,5.452c-0.119,0.069-0.266,0.069-0.385,0.001l-9.445-5.376C241.533,413.822,241.484,413.773,241.45,413.714z"/>
				</g>
				<g id="XMLID_677_">
					<path id="XMLID_1163_" style="fill:#E0E0E0;" d="M265.066,416.361l-0.683,0.394c-0.371,0.214-0.371,0.561,0,0.775
						l33.287,19.221c0.371,0.214,0.972,0.214,1.342,0l0.685-0.396c0.371-0.214,0.371-0.561,0-0.775l-33.289-19.22
						C266.038,416.147,265.437,416.147,265.066,416.361z"/>
					<path id="XMLID_679_" style="fill:#E0E0E0;" d="M260.94,418.743l-0.683,0.394c-0.371,0.214-0.371,0.561,0,0.775l33.287,19.221
						c0.371,0.214,0.972,0.214,1.342,0l0.686-0.396c0.371-0.214,0.371-0.561,0-0.775l-33.289-19.22
						C261.912,418.529,261.311,418.529,260.94,418.743z"/>
					<path id="XMLID_678_" style="fill:#E0E0E0;" d="M256.838,421.112l-0.683,0.394c-0.371,0.214-0.371,0.561,0,0.775l33.287,19.221
						c0.371,0.214,0.972,0.214,1.342,0l0.685-0.396c0.371-0.214,0.371-0.561,0-0.775l-33.289-19.22
						C257.81,420.898,257.208,420.898,256.838,421.112z"/>
				</g>
				<polygon id="XMLID_682_" style="fill:#27DEBF;" points="248.369,415.867 249.096,412.928 251.288,412.747 250.874,414.42 
					262.928,413.426 262.614,414.692 				"/>
			</g>
		</g>
		<g>
			<path style="fill:#37474F;" d="M346.524,391.3l-4.192-3.272c0,0-0.121-0.135-0.237-0.341c0.033-0.04,0.068-0.08,0.11-0.118
				l1.038-0.953l3.248-2.976c0,0,0.308-0.217,0.309-0.63c0-0.187,0.001-0.964,0.001-1.26c0-0.225-0.092-0.507-0.374-0.843
				c-0.322-0.381-0.572-0.969-0.677-1.611c0.098-0.555,0.337-1.079,0.771-1.477c1.063-0.974,1.445-2.147,1.206-3.232
				c0.31-1.411-0.416-2.856-2.095-3.741c-0.948-0.5-2.066-0.749-3.198-0.763c-0.045-0.001-0.093,0-0.142,0.001
				c-1.799,0.005-3.611,0.599-4.825,1.712c-0.673,0.617-1.893,1.008-3.123,1.195c-1.076,0.165-2.16,0.173-2.88,0.043
				c-0.247-0.045-0.466-0.066-0.661-0.07c-0.024,0-0.045-0.001-0.069,0c-0.98-0.003-1.33,0.423-1.33,0.423l-2.805,2.599
				l-1.038,0.953c-0.018,0.015-0.03,0.031-0.053,0.044c-0.771,0.66-1.948,0.511-2.358,0.337c-1.537-0.647-2.273-1.006-4.783-2.148
				c-0.712-0.323-1.502-0.475-2.305-0.477c-0.015,0-0.03-0.001-0.045-0.001c-1.15,0.006-2.326,0.309-3.38,0.851v1.258l34.654,19.997
				c0.412-0.561,0.661-1.13,0.661-1.73c0-0.206,0.001-1.05,0-1.267C347.951,393.034,347.538,392.215,346.524,391.3z
				 M339.369,373.827c1.109-1.016,3.033-1.331,4.534-0.796c0.166,0.06,0.328,0.133,0.482,0.214c0.629,0.329,1.038,0.786,1.223,1.288
				c-0.123,0.339-0.342,0.669-0.668,0.969c-0.382,0.35-0.866,0.616-1.385,0.795c-1.181,0.395-2.576,0.346-3.64-0.212
				c-0.625-0.329-1.032-0.784-1.217-1.284C338.821,374.46,339.042,374.128,339.369,373.827z"/>
			<path id="XMLID_733_" style="fill:#455A64;" d="M312.638,375.545l34.654,19.997c0.944-1.283,1.041-2.61-0.767-4.242l-4.192-3.272
				c0,0-0.907-1.007-0.127-1.717l1.038-0.953l3.248-2.976c0,0,0.737-0.52-0.065-1.475c-0.803-0.95-1.174-3.184,0.094-4.345
				c2.009-1.84,1.61-4.397-0.889-5.715c-0.948-0.5-2.066-0.749-3.198-0.763c-0.045-0.001-0.093,0-0.142,0.001
				c-1.799,0.005-3.611,0.599-4.825,1.712c-0.673,0.617-1.893,1.008-3.123,1.195c-1.076,0.165-2.16,0.173-2.88,0.043
				c-0.247-0.045-0.466-0.066-0.661-0.07c-0.024,0-0.045-0.001-0.069,0c-0.98-0.003-1.33,0.423-1.33,0.423l-2.805,2.599
				l-1.038,0.953c-0.018,0.015-0.03,0.031-0.053,0.044c-0.771,0.66-1.948,0.511-2.358,0.337c-1.537-0.647-2.273-1.006-4.783-2.148
				c-0.712-0.323-1.502-0.475-2.305-0.477c-0.015,0-0.03-0.001-0.045-0.001C314.868,374.7,313.691,375.004,312.638,375.545z
				 M343.903,371.773c0.166,0.061,0.328,0.133,0.482,0.214c1.544,0.809,1.787,2.382,0.555,3.514
				c-0.382,0.35-0.866,0.616-1.385,0.795c-1.181,0.395-2.576,0.346-3.64-0.212c-1.541-0.811-1.778-2.383-0.546-3.515
				C340.478,371.553,342.402,371.239,343.903,371.773z"/>
		</g>
	</g>
</g>
<g id="Pencil_1_">
	<g id="Pencil">
		<path id="XMLID_689_" style="fill:#27DEBF;" d="M440.962,346.892l-0.96,0.581l-1.155,0.707l-41.607,25.243
			c0.344-0.826,0.018-2.451-0.854-3.998c-1.017-1.802-2.54-3.209-3.617-3.237l41.3-25.056l2.213-1.342
			C434.898,340.738,439.56,347.825,440.962,346.892z"/>
		<g>
			<path id="XMLID_686_" style="fill:#EBEBEB;" d="M436.14,339.876c0.609-0.396,1.712,0.736,2.775,2.181
				c1.417,1.916,2.591,4.469,1.784,4.996l-1.579,0.958l-0.571,0.333c0.806-0.527-0.366-3.081-1.783-4.997
				c-1.02-1.383-2.174-2.436-2.799-2.16l-0.007,0.004L436.14,339.876z"/>
			<path id="XMLID_685_" style="fill:#27DEBF;" d="M434.435,340.903c1.413-0.923,6.067,6.2,4.654,7.123l-2.143,1.304
				c1.413-0.923-3.24-8.045-4.654-7.122L434.435,340.903z"/>
			<path id="XMLID_684_" style="fill:#EBEBEB;" d="M430.251,343.449l2.115-1.288c1.381-0.917,5.941,5.915,4.778,7.048
				c-0.018,0.022-0.045,0.042-0.073,0.061l-2.14,1.281C436.316,349.603,431.653,342.517,430.251,343.449z"/>
		</g>
		<g id="XMLID_680_">
			<polygon id="XMLID_885_" style="fill:#FAFAFA;" points="392.766,366.184 392.769,366.189 392.769,366.188 392.776,366.184 
				392.766,366.184 386.494,373.658 386.495,373.658 			"/>
			<polygon id="XMLID_889_" style="fill:#E0E0E0;" points="386.494,373.658 384.973,375.471 386.494,373.658 			"/>
			<path style="fill:#FFA8A7;" d="M396.137,368.059c-0.909-1.104-2.125-1.89-3.361-1.875l-0.007,0.004v0l-0.003-0.005l-6.272,7.474
				c0.254,0.037,0.501,0.16,0.676,0.348c0.774,0.996,0.711,1.496,0.711,1.496l9.357-2.079
				C398.139,371.974,397.468,369.676,396.137,368.059z"/>
			<path style="fill:#37474F;" d="M387.171,374.006c-0.181-0.251-0.551-0.375-0.676-0.348l-1.521,1.813h0
				c-0.142,0.169-0.099,0.39,0.037,0.513c0.082,0.074,0.197,0.113,0.326,0.084l2.546-0.566
				C387.882,375.502,387.985,375.004,387.171,374.006z"/>
		</g>
		<path style="fill:#F28F8F;" d="M449.387,341.772l-8.424,5.125c-0.05,0.03-0.1,0.05-0.15,0.06c0.57-0.69-0.55-3.08-1.9-4.9
			c-0.98-1.33-2.134-2.351-2.774-2.181l8.784-5.349c1.92-1.39,4.544,2.235,5.104,4.855
			C450.247,340.372,450.097,341.252,449.387,341.772z"/>
		<path style="opacity:0.15;" d="M449.387,341.772c0.71-0.52,0.86-1.4,0.64-2.39c-0.026-0.124-0.062-0.251-0.097-0.379
			l-52.443,31.666l-12.477,5.314c0.082,0.074,0.197,0.113,0.326,0.084l2.546-0.566l9.357-2.079c0.001-0.003,0.002-0.005,0.004-0.008
			c-0.001,0.003-0.001,0.006-0.002,0.008L449.387,341.772z"/>
	</g>
</g>
<g id="Character">
	<g id="Clock_2_">
		<g id="XMLID_577_">
			<path id="XMLID_578_" style="fill:#455A64;" d="M76.838,365.222l-12.922,25.207c-1.738,3.26-0.503,7.311,2.757,9.049
				c3.26,1.737,7.311,0.503,9.049-2.757l12.998-25.351c1.257-2.43-0.384-5.775-3.665-7.472
				C81.773,362.199,78.094,362.793,76.838,365.222z"/>
		</g>
		<g id="XMLID_575_">
			<path id="XMLID_576_" style="fill:#455A64;" d="M177.789,312.453l25.207,12.922c3.26,1.737,7.312,0.503,9.049-2.757
				c1.737-3.26,0.503-7.311-2.757-9.049l-25.351-12.997c-2.43-1.257-5.775,0.384-7.472,3.665
				C174.766,307.517,175.36,311.196,177.789,312.453z"/>
		</g>
		<path id="XMLID_574_" style="fill:#27DEBF;" d="M199.574,200.623l0.003-0.005l-0.12-0.062c-0.004-0.002-0.008-0.004-0.013-0.007
			l-45.556-23.372c-0.01-0.005-0.018-0.01-0.028-0.014l-0.168-0.086l-0.003,0.007c-13.473-6.829-31.473-4.822-50.851,7.657
			c-38.932,25.071-68.671,82.89-66.424,129.141c1.12,23.054,9.978,38.877,23.4,45.851l-0.002,0.005l0.119,0.061
			c0.005,0.003,0.01,0.005,0.015,0.008l45.563,23.376c0.004,0.002,0.008,0.004,0.012,0.006l0.142,0.073l0.003-0.006
			c13.477,6.85,31.491,4.849,50.887-7.641c38.931-25.071,68.671-82.889,66.424-129.141
			C221.854,223.421,212.996,207.597,199.574,200.623z"/>
		<path id="XMLID_573_" style="opacity:0.1;" d="M104.525,382.655l-44.572-22.85c-0.022,0.001-0.022,0.001-0.022,0.001l-0.13-0.078
			c-13.415-6.991-22.269-22.816-23.387-45.837c-1.002-20.627,4.37-43.543,14.054-64.816l45.567,23.37
			c-9.705,21.274-15.056,44.189-14.054,64.816C83.077,359.82,91.584,375.451,104.525,382.655z"/>
		
			<ellipse id="XMLID_572_" transform="matrix(0.4574 -0.8893 0.8893 0.4574 -176.8117 293.9669)" style="opacity:0.4;fill:#FFFFFF;" cx="152.482" cy="291.87" rx="102.688" ry="59.287"/>
		<path id="XMLID_571_" style="fill:#FAFAFA;" d="M123.925,372.39c-22.952,1.115-26.689-24.693-27.231-35.84
			c-1.981-40.794,25.354-93.939,59.691-116.049c8.738-5.629,17.264-8.794,24.653-9.153c22.954-1.115,26.691,24.693,27.233,35.84
			c1.981,40.792-25.354,93.937-59.691,116.049c-8.741,5.629-17.266,8.794-24.653,9.153L123.925,372.39z"/>
		<g id="XMLID_515_">
			<g id="XMLID_569_">
				<path id="XMLID_570_" style="fill:#27DEBF;" d="M142.892,345.755c-0.115,0.005-0.233-0.007-0.349-0.043
					c-0.557-0.164-0.875-0.749-0.709-1.306l13.847-46.679c0.166-0.557,0.751-0.877,1.306-0.709c0.557,0.164,0.875,0.749,0.709,1.306
					l-13.847,46.679C143.718,345.444,143.325,345.734,142.892,345.755z"/>
			</g>
			<g id="XMLID_567_">
				<path id="XMLID_568_" style="fill:#37474F;" d="M182.017,285.314c-0.218,0.355-0.51,0.675-0.874,0.932l-23.183,16.317
					l-37.303-22.806c-1.485-0.909-1.953-2.852-1.043-4.337c0.909-1.485,2.852-1.953,4.337-1.043l33.768,20.642l19.792-13.933
					c1.425-1.001,3.393-0.661,4.396,0.765C182.655,282.911,182.654,284.273,182.017,285.314z"/>
			</g>
			<path id="XMLID_566_" style="fill:#27DEBF;" d="M156.194,287.867c4.58-2.949,8.508-0.93,8.772,4.512
				c0.264,5.441-3.234,12.244-7.814,15.193c-4.58,2.949-8.507,0.929-8.772-4.512C148.115,297.619,151.614,290.817,156.194,287.867z"
				/>
		</g>
	</g>
	<g id="Character_4_">
		<g>
			<path id="XMLID_262_" style="fill:#B16668;" d="M180.069,127.799c1.134-1.12,3.309-1.648,4.899-1.545
				c1.052,0.069,2.126,0.098,2.745,0.027c1.181-0.135,2.391-0.74,2.882-1.823c0.124-0.273,0.198-0.566,0.328-0.836
				c0.207-0.431,0.545-0.786,0.775-1.206c0.328-0.599,0.42-1.323,0.251-1.985c-0.066-0.259-0.171-0.524-0.112-0.785
				c0.052-0.225,0.217-0.402,0.354-0.587c0.602-0.812,0.707-1.964,0.26-2.87c-0.119-0.241-0.274-0.469-0.337-0.73
				c-0.131-0.546,0.166-1.101,0.189-1.662c0.105-2.507-4.063-2.144-5.55-1.807c-0.427,0.097-2.518,0.522-3.463,0.749
				c0.154-1.121,0.215-2.197-0.047-4.135c-0.359-2.654-2.887-3.908-3.181-2.348c-0.169,0.894,0.005,3.395-1.07,5.479
				c-0.484,0.938-1.097,1.446-1.537,3.035c-0.39,1.409-0.862,2.404-4.002,5.395c-2.926,2.787-13.973,11.665-13.973,11.665
				s-11.6-20.184-14.46-25.528c-5.816-10.869-16.079-8.58-16.079-8.58l2.193,14.425c0,0,18.504,29.348,21.673,33.393
				c3.09,3.944,7.414,2.803,9.688,0.764C165.773,143.367,174.323,133.476,180.069,127.799z"/>
			<path style="fill:#27DEBF;" d="M127.39,97.904c0,0,8.784-2.097,13.085,1.968c4.016,3.796,5.624,7.016,10.74,16.717
				c4.693,8.901,8.046,14.017,8.046,14.017s-4.073,8.965-11.46,8.449l-11.558-16.85L127.39,97.904z"/>
			<path style="opacity:0.6;" d="M127.39,97.904c0,0,8.784-2.097,13.085,1.968c4.016,3.796,5.624,7.016,10.74,16.717
				c4.693,8.901,8.046,14.017,8.046,14.017s-4.073,8.965-11.46,8.449l-11.558-16.85L127.39,97.904z"/>
			<path style="fill:#9A4A4D;" d="M184.358,113.626c-1.178,0.345-1.939,1.159-2.271,3.238c-0.197,1.233-1.126,3.356-2.625,4.025
				c0,0,1.128,0.095,1.877-0.439c0.749-0.535,0.935-0.577,1.219-0.143c0.284,0.433,0.828,0.696,0.828,0.696
				s-0.941,0.696-0.489,1.874c0.452,1.178,3.33,1.723,5.91,0.929c0,0-4.048,0.499-4.718-0.877c-0.67-1.376,1.636-2.534,3.221-2.674
				c0,0-3.86,0.213-4.207-1.101c-0.348-1.314,1.346-1.956,3.626-2.117c0,0-3.161,0.002-3.498-1.129
				C182.822,114.53,183.88,113.968,184.358,113.626z"/>
		</g>
		<g id="XMLID_665_">
			<path style="fill:#27DEBF;" d="M142.115,126.473c0,0-1.321,7.264-0.113,13.393c1.191,6.046,2.098,11.341,2.098,11.341
				s-3.712,4.257-10.729,3.284c-7.64-1.059-5.307-19.189-0.925-23.644C136.827,126.391,142.115,126.473,142.115,126.473z"/>
			<path style="opacity:0.5;" d="M142.115,126.473c0,0-1.321,7.264-0.113,13.393c1.191,6.046,2.098,11.341,2.098,11.341
				s-3.712,4.257-10.729,3.284c-7.64-1.059-5.307-19.189-0.925-23.644C136.827,126.391,142.115,126.473,142.115,126.473z"/>
		</g>
		<g>
			<g>
				<path style="fill:#263238;" d="M141.344,272.652l0.96-0.162c0-3.03-0.231-5.796,0.491-7.239l-1.451-3.688V272.652z"/>
				<path style="fill:#263238;" d="M138.688,258.91c0.259,2.072,1.482,4.178,1.652,8.266c0.17,4.088,0,5.231,0,5.231l1.005,0.246
					v-11.089L138.688,258.91z"/>
				<path style="fill:#263238;" d="M162.529,274.953c0,0-0.119,1.121-0.633,1.527c-0.514,0.406-2.146,1.784-7.483,1.578
					c-5.337-0.206-7.23-1.482-9.085-3.106c-1.855-1.624-2.425-5.978-2.739-8.03c-0.609-3.978-2.312-6.034-3.901-8.012
					c-0.454-0.973-0.199-2.066-0.199-2.066s4.399-0.336,6.408,4.505c2.009,4.841,3.62,10.477,7.958,11.742
					C157.192,274.356,162.529,274.953,162.529,274.953z"/>
				<path style="fill:#B16668;" d="M159.732,270.371c1.66,1.374,2.903,1.972,2.791,3.279c-0.113,1.316-1.486,1.927-2.582,2.28
					c-2.601,0.837-5.574,0.575-8.202,0.161c-2.704-0.426-5.587-1.587-6.755-4.063c-0.34-0.721-0.51-1.508-0.673-2.289
					c-0.535-2.564-1.029-5.183-2.162-7.565c-0.489-1.028-0.846-1.996-1.519-2.919c-0.712-0.977-1.572-2.041-1.725-3.283
					c-0.127-1.033,0.64-2.511,1.648-4.1c0.007-0.011,0.015-0.023,0.022-0.034c1.138-1.792,1.348-2.703,1.178-4.819l-0.435-7.529
					l11.903,2.589c0,0-0.954,6.56-1.035,8.266c-0.081,1.707,0.118,4.855,0.768,7.5c0.723,2.94,1.804,5.792,3.208,8.474
					c0.355,0.677,0.736,1.352,1.263,1.905C158.093,268.924,158.581,269.419,159.732,270.371z"/>
				<path style="fill:#37474F;" d="M138.892,253.8c0.729-1.355,1.744-2.183,2.452-3.352c0.452,0.544,1.103,2.154,1.451,3.214
					c0.348,1.059,1.31,6.273,2.683,10.41c1.031,3.105,2.687,4.727,4.936,5.532c1.404,0.503,2.929,0.635,4.402,0.403
					c0.007-0.001,0.014-0.002,0.021-0.003c2.761-0.438,2.074-2.418,2.074-2.418c0.661,0.868,3.671,3.135,5.338,4.239
					c1.054,0.699,0.935,2.236,0.28,3.128c-0.757,0.68-3.35,2.351-9.987,1.527c-5.892-0.731-7.323-3.417-7.905-4.63
					c-0.445-0.926-0.851-2.921-1.333-5.489c-0.384-2.047-1.1-4.027-2.181-5.806c-0.136-0.225-0.271-0.433-0.398-0.613l0,0
					c0,0,0,0,0,0c-0.407-0.573-0.889-1.207-1.43-1.835c-0.42-0.488-0.747-0.714-0.878-1.185
					C138.271,255.781,138.257,254.982,138.892,253.8z"/>
			</g>
			<g>
				<path style="fill:#263238;" d="M161.629,263.789l0.964-0.134c0.088-3.029-0.063-5.8,0.7-7.222l-1.343-3.729L161.629,263.789z"/>
				<path style="fill:#263238;" d="M159.372,249.975c0.199,2.078,1.36,4.219,1.412,8.31c0.052,4.091-0.152,5.228-0.152,5.228
					l0.997,0.274l0.322-11.085L159.372,249.975z"/>
				<path style="fill:#263238;" d="M182.739,266.702c0,0-0.152,1.117-0.677,1.509c-0.526,0.391-2.193,1.655-7.522,1.294
					c-5.329-0.36-7.187-1.624-8.995-3.302c-1.808-1.677-2.251-6.046-2.505-8.106c-0.494-3.994-2.136-6.098-3.668-8.121
					c-0.426-0.986-0.139-2.071-0.139-2.071s4.407-0.208,6.275,4.689c1.868,4.897,3.314,10.577,7.614,11.968
					C177.42,265.951,182.739,266.702,182.739,266.702z"/>
				<path style="fill:#B16668;" d="M180.075,262.041c1.619,1.421,2.845,2.055,2.695,3.358c-0.151,1.312-1.541,1.883-2.647,2.204
					c-2.625,0.762-5.588,0.413-8.203-0.077c-2.69-0.504-5.539-1.749-6.634-4.257c-0.319-0.73-0.466-1.522-0.606-2.307
					c-0.46-2.578-0.879-5.211-1.942-7.624c-0.459-1.042-0.788-2.019-1.434-2.962c-0.683-0.997-1.512-2.086-1.629-3.331
					c-0.097-1.036,0.713-2.491,1.766-4.051c0.008-0.011,0.015-0.023,0.023-0.034c1.19-1.758,1.567-2.464,1.566-5.654l-0.376-6.666
					l11.823,2.933c0,0-0.884,4.375-1.27,7.741c-0.313,2.734-0.117,5.348,0.457,8.009c0.638,2.959,1.635,5.842,2.961,8.564
					c0.335,0.687,0.696,1.373,1.208,1.941C178.479,260.547,178.953,261.056,180.075,262.041z"/>
				<path style="fill:#37474F;" d="M159.885,244.553c0.679-1.006,1.414-1.736,2.375-2.867c0.436,0.557,0.927,1.585,1.406,2.946
					c0.479,1.362,1.091,6.523,2.344,10.698c0.94,3.133,2.549,4.802,4.774,5.673c1.389,0.543,2.909,0.719,4.389,0.531
					c0.007-0.001,0.014-0.002,0.021-0.003c2.772-0.358,2.143-2.357,2.143-2.357c0.635,0.886,3.579,3.24,5.212,4.392
					c1.034,0.729,0.87,2.262,0.189,3.135c-0.776,0.658-3.417,2.253-10.027,1.237c-5.868-0.902-7.221-3.628-7.768-4.857
					c-0.418-0.939-0.766-2.945-1.173-5.525c-0.325-2.057-0.983-4.057-2.012-5.867c-0.13-0.228-0.258-0.44-0.38-0.624l0,0
					c0,0,0,0,0,0c-0.39-0.585-0.853-1.232-1.376-1.876c-0.406-0.5-0.726-0.736-0.843-1.21
					C159.046,246.835,159.134,245.665,159.885,244.553z"/>
			</g>
			<path style="fill:#37474F;" d="M110.023,166.774c1.06-4.341,2.458-7.161,3.663-9.485c11.329,5.381,15.666,3.814,27.082,0.155
				c5.334,5.872,12.953,8.883,20.23,12.609c7.277,3.726,15.538,7.595,20.101,12.298c2.059,2.122,1.438,7.291,0.397,13.934
				c-1.41,9-7.024,37.436-7.024,37.436c-7.754,2.759-11.753-1.818-11.753-1.818s-1.215-12.01-2.201-21.684
				c-0.99-9.714,2.513-14.272,2.513-14.272s-23.273-8.82-32.07-10.636C116.271,182.28,108.09,180.407,110.023,166.774z"/>
			<path style="fill:#455A64;" d="M93.094,171.936c1.021-6.393,7.477-19.825,8.682-22.148c11.329,5.381,27.576,11.315,38.992,7.655
				c-1.732,11.984-8.402,19.334-8.402,19.334c17.216,12.579,20.742,16.989,24.939,22.186c1.166,1.444,2.291,4.425,1.608,8.578
				c-1.478,8.989-6.051,37.092-6.051,37.092c-6.823,2.34-11.638-0.981-11.638-0.981s-1.411-10.645-2.396-20.319
				c-0.99-9.714,0.063-14.438,0.063-14.438s-23.237-10.353-32.026-14.391C92.102,187.722,92.073,178.329,93.094,171.936z"/>
		</g>
		<g>
			<g id="XMLID_663_">
				<g id="XMLID_664_">
					<path style="fill:#27DEBF;" d="M113.716,98.304c0,0-12.725,1.463-14.247,2.147c11.937,8.396,2.273,27.084,2.273,27.084
						l4.577,14.335c-1.899,5.043-8.055,11.454-9.938,19.36c16.572,9.956,37.57,8.097,44.388-3.787
						c-0.35-5.792-0.302-14.557-0.826-18.237c0.154-2.702-0.083-5.821,0.231-10.243c5.632-5.761,4.015-12.215,2.699-14.825
						c-4.74-9.397-12.88-16.235-15.481-16.235L113.716,98.304z"/>
				</g>
			</g>
			<g id="XMLID_662_">
				<path style="fill:#27DEBF;" d="M109.805,98.691c0,0-8,0.644-10.336,1.759c-2.337,1.115-6.222,7.828-2.741,17.597
					c3.48,9.768,6.632,21.234,6.275,23.543s-6.623,15.699-6.623,15.699c1.377,2.163,3.375,3.746,6.041,4.241l3.821-11.331
					l-1.243,12.299c0,0,7.9,1.634,13.37,1.159C118.368,163.657,118.494,123.973,109.805,98.691z"/>
			</g>
			<g id="XMLID_645_" style="opacity:0.5;">
				<path d="M109.805,98.691c0,0-8,0.644-10.336,1.759c-2.337,1.115-6.222,7.828-2.741,17.597c3.48,9.768,6.632,21.234,6.275,23.543
					s-6.623,15.699-6.623,15.699c1.054,1.889,3.375,3.746,6.041,4.241l3.821-11.331l-1.243,12.299c0,0,7.9,1.634,13.37,1.159
					C118.368,163.657,118.494,123.973,109.805,98.691z"/>
			</g>
		</g>
		<g id="XMLID_627_">
			<g id="XMLID_643_">
				<path style="fill:#263238;" d="M124.152,51.878c-11.807-0.819-23.767,8.64-21.289,24.435
					c1.685,10.74,7.943,14.479,10.018,14.541l12.089,0.489c2.792-8.497,16.267-9.555,19.174-22.105
					C147.043,56.718,135.959,52.697,124.152,51.878z"/>
				<path style="fill:#263238;" d="M101.335,57.098c-4.713,1.508-6.987,5.576-8.322,10.094c-0.984,3.332-1.544,6.807-2.944,9.986
					c-0.459,1.042-1.015,2.057-1.792,2.89c-1.012,1.085-2.343,1.805-3.581,2.622c-1.238,0.817-2.451,1.81-3.013,3.183
					c-0.759,1.854,1.026,3.612,2.519,4.575c2.82,1.818,6.415,1.953,9.531,0.867c3.106-1.083,5.376-3.503,6.442-6.617
					c0.994-2.902,0.943-5.709,0.938-8.707c-0.005-3.136,0.12-6.36,1.358-9.242c0.454-1.056,1.073-2.075,1.988-2.771
					c0.863-0.657,1.924-0.984,2.927-1.395c1.004-0.411,2.018-0.962,2.578-1.891c1.524-2.528-2.152-3.799-4.016-4.037
					C104.403,56.46,102.819,56.623,101.335,57.098z"/>
				<path id="XMLID_644_" style="fill:#263238;" d="M109.063,57.896l-5.119-2.368c0.619-1.463,2.267-2.12,3.681-1.465
					C109.039,54.717,109.682,56.433,109.063,57.896z"/>
				<path id="XMLID_650_" style="fill:#263238;" d="M109.071,57.194l-1.115-5.529c1.546-0.365,3.05,0.577,3.357,2.104
					C111.622,55.296,110.618,56.829,109.071,57.194z"/>
			</g>
			<g id="XMLID_628_">
				<g id="XMLID_641_">
					<path id="XMLID_642_" style="fill:#B16668;" d="M135.815,62.368c3.905,2.193,5.41,7.364,4.309,19.251
						c-0.933,10.075-4.377,12.341-6.069,12.945c-1.692,0.605-4.829-0.052-7.873-0.779l-0.349,4.176c0,0,4.951,6.594,4.491,9.353
						c-0.46,2.758-7.493,3.532-11.287,0.542c-3.794-2.989-6.8-8.443-6.8-8.443l1.052-13.987c0,0-1.934,1.635-4.821-1.265
						c-2.383-2.394-2.978-6.193-0.862-8.063c2.116-1.87,5.732-1.07,6.935,1.889c0,0,5.672-0.205,12.252-3.762
						C133.216,70.752,135.243,66.475,135.815,62.368z"/>
				</g>
				<g id="XMLID_639_">
					<path id="XMLID_640_" style="fill:#263238;" d="M127.795,77.662c-0.014,0.73-0.594,1.309-1.296,1.293
						c-0.702-0.015-1.261-0.619-1.246-1.349c0.014-0.73,0.594-1.309,1.297-1.293C127.251,76.328,127.809,76.933,127.795,77.662z"/>
				</g>
				<g id="XMLID_637_">
					<path id="XMLID_638_" style="fill:#9A4A4D;" d="M128.778,86.88l2.882,1.145c-0.303,0.826-1.194,1.24-1.99,0.924
						C128.874,88.633,128.475,87.707,128.778,86.88z"/>
				</g>
				<g id="XMLID_635_">
					<path id="XMLID_636_" style="fill:#263238;" d="M139.139,75.134l-2.834-1.331c0.341-0.803,1.252-1.155,2.035-0.787
						C139.122,73.382,139.48,74.331,139.139,75.134z"/>
				</g>
				<g id="XMLID_633_">
					<path id="XMLID_634_" style="fill:#263238;" d="M137.786,77.662c-0.014,0.73-0.594,1.309-1.297,1.294
						c-0.702-0.016-1.26-0.619-1.246-1.349c0.014-0.73,0.594-1.309,1.296-1.294C137.242,76.328,137.8,76.932,137.786,77.662z"/>
				</g>
				<g id="XMLID_631_">
					<polygon id="XMLID_632_" style="fill:#9A4A4D;" points="131.786,76.313 131.137,84.577 135.243,83.61 					"/>
				</g>
				<g id="XMLID_629_">
					<path id="XMLID_630_" style="fill:#9A4A4D;" d="M126.181,93.786c-3.215-0.65-9.759-3.032-10.616-5.743
						c0,0,0.232,1.683,2.107,3.531c1.876,1.848,8.369,4.233,8.369,4.233L126.181,93.786z"/>
				</g>
			</g>
		</g>
		<g>
			<g>
				<path style="fill:#27DEBF;" d="M112.35,97.904l-5.496,1.085c0,0,2.544,11.025,9.333,12.979c6.789,1.954,9.333-2.199,9.333-2.199
					C119.421,107.226,115.059,103.248,112.35,97.904z"/>
				<path style="opacity:0.7;fill:#FFFFFF;" d="M112.35,97.904l-5.496,1.085c0,0,2.544,11.025,9.333,12.979
					c6.789,1.954,9.333-2.199,9.333-2.199C119.421,107.226,115.059,103.248,112.35,97.904z"/>
			</g>
			<g>
				<path style="fill:#27DEBF;" d="M125.832,97.962c0,0,3.801,8.62-0.312,11.807c0,0,5.44,1.625,6.888-0.678
					c1.447-2.303-1.196-8.85-3.466-11.369L125.832,97.962z"/>
				<path style="opacity:0.7;fill:#FFFFFF;" d="M125.832,97.962c0,0,3.801,8.62-0.312,11.807c0,0,5.44,1.625,6.888-0.678
					c1.447-2.303-1.196-8.85-3.466-11.369L125.832,97.962z"/>
			</g>
		</g>
		<g id="XMLID_581_">
			<g id="XMLID_623_">
				<path id="XMLID_624_" style="fill:#EBEBEB;" d="M103.525,189.115l-0.014,0.954c-0.014,0.963,0.488,1.863,1.312,2.357
					l25.503,15.171c0.412,0.247,0.878,0.371,1.345,0.378c0.463,0.007,0.932-0.104,1.351-0.339l47.571-26.554
					c0.843-0.469,1.37-1.355,1.384-2.318l0.01-0.656l-50.29,28.074L103.525,189.115z"/>
			</g>
			<g id="XMLID_621_">
				<path id="XMLID_622_" style="fill:#FAFAFA;" d="M181.988,178.108l-27.739-16.553c-0.493-0.294-1.106-0.303-1.608-0.023
					l-48.934,27.32c-0.24,0.134-0.245,0.478-0.009,0.619l27.999,16.712L181.988,178.108z"/>
			</g>
			<g id="XMLID_618_">
				<polygon id="XMLID_619_" style="fill:#E0E0E0;" points="131.475,203.804 116.513,194.885 160.998,170.052 176.039,178.928 				
					"/>
			</g>
			<g id="XMLID_616_">
				<polygon id="XMLID_617_" style="fill:#E0E0E0;" points="124.409,179.491 124.685,179.655 132.018,184.031 145.279,176.628 
					145.555,176.476 137.946,171.936 				"/>
			</g>
			<g id="XMLID_614_">
				<polygon id="XMLID_615_" style="fill:#E6E6E6;" points="124.685,179.655 132.018,184.031 145.279,176.628 137.941,172.253 				
					"/>
			</g>
			<g id="XMLID_604_">
				<path id="XMLID_609_" style="fill:#EBEBEB;" d="M131.698,206.182l-0.026,1.794c0.463,0.007,0.932-0.104,1.351-0.339
					l47.571-26.554c0.843-0.469,1.37-1.355,1.384-2.318l0.01-0.656L131.698,206.182z"/>
			</g>
			<g id="XMLID_590_" style="opacity:0.5;">
				<path id="XMLID_591_" style="fill:#E0E0E0;" d="M131.698,206.182l-0.026,1.794c0.463,0.007,0.932-0.104,1.351-0.339
					l47.571-26.554c0.843-0.469,1.37-1.355,1.384-2.318l0.01-0.656L131.698,206.182z"/>
			</g>
			<g id="XMLID_588_">
				<path id="XMLID_589_" style="fill:#27DEBF;" d="M132.453,206.591c0.887,0.358,1.904,0.306,2.756-0.173l47.362-26.439
					c0.833-0.465,1.412-1.274,1.586-2.211l5.586-30.59c0.031-0.174,0.047-0.349,0.05-0.524c0.012-0.855-0.316-1.676-0.912-2.285
					l-49.219,27.48c-0.614,0.345-1.043,0.944-1.172,1.636L132.453,206.591z"/>
			</g>
			<g id="XMLID_586_" style="opacity:0.7;">
				<path id="XMLID_587_" style="fill:#FFFFFF;" d="M132.453,206.591c0.887,0.358,1.904,0.306,2.756-0.173l47.362-26.439
					c0.833-0.465,1.412-1.274,1.586-2.211l5.586-30.59c0.031-0.174,0.047-0.349,0.05-0.524c0.012-0.855-0.316-1.676-0.912-2.285
					l-49.219,27.48c-0.614,0.345-1.043,0.944-1.172,1.636L132.453,206.591z"/>
			</g>
			<g id="XMLID_584_">
				<path id="XMLID_585_" style="fill:#FAFAFA;" d="M131.698,206.184l0.318,0.189c0.141,0.082,0.286,0.155,0.436,0.219l6.038-33.106
					c0.128-0.692,0.557-1.291,1.172-1.636l49.219-27.48c-0.186-0.192-0.406-0.36-0.644-0.505l-49.319,27.53
					c-0.614,0.345-1.043,0.944-1.172,1.636L131.698,206.184z"/>
			</g>
			<g id="XMLID_582_">
				<path id="XMLID_583_" style="fill:#27DEBF;" d="M159.316,178.666c0.374-2.048,2.533-4.744,4.822-6.022
					c2.289-1.278,3.842-0.654,3.468,1.395c-0.374,2.048-2.533,4.744-4.822,6.022C160.494,181.338,158.942,180.714,159.316,178.666z"
					/>
			</g>
		</g>
		<g>
			<g id="XMLID_579_">
				<path id="XMLID_580_" style="fill:#B16668;" d="M107.738,184.18c-2.584-1.777-19.071-13.764-25.655-18.868
					c-6.856-5.315-6.434-7.021-5.604-10.856c1.638-7.568,10.104-31.821,12.964-38.882c3.2-7.899,4.205-13.264,9.849-14.277
					c4.298,3.392,7.562,11.433,2.677,25.617l-9.254,27.627c0,0,7.067,8.372,11.703,12.712c4.635,4.34,8.754,8.404,12.094,9.388
					c2.99,0.881,6.451,1.476,7.5,2.443c1.05,0.967,6.102,6.592,7.08,8.208c0.978,1.616,3.318,4.902,0,5.95
					c-3.031,0.957-5.496-0.338-7.956-2.026c-1.584-1.087-3.286-2.714-3.286-2.714s-3.63,0.564-7.107-1.41
					C110.869,186.027,107.738,184.18,107.738,184.18z"/>
			</g>
			<g id="XMLID_661_">
				<path style="fill:#27DEBF;" d="M99.469,100.451c-5.024,0.847-6.449,4.32-10.162,14.017
					c-2.607,6.809-11.942,36.523-11.942,36.523s5.21,6.05,15.351,3.55l11.703-31.68C104.419,122.861,108.098,107.844,99.469,100.451
					z"/>
			</g>
			<g id="XMLID_649_" style="opacity:0.6;">
				<path d="M99.469,100.451c-5.024,0.847-6.449,4.32-10.162,14.017c-2.607,6.809-11.942,36.523-11.942,36.523
					s5.21,6.05,15.351,3.55l11.703-31.68C104.419,122.861,108.098,107.844,99.469,100.451z"/>
			</g>
		</g>
	</g>
</g>
</svg>
